<?xml version="1.0" encoding="UTF-8" standalone="no"?>
<!DOCTYPE svg PUBLIC "-//W3C//DTD SVG 1.1//EN"
 "http://www.w3.org/Graphics/SVG/1.1/DTD/svg11.dtd">
<!-- Generated by graphviz version 2.38.0 (20140413.2041)
 -->
<!-- Title: %3 Pages: 1 -->
<svg width="839pt" height="215pt"
 viewBox="0.00 0.00 838.92 215.38" xmlns="http://www.w3.org/2000/svg" xmlns:xlink="http://www.w3.org/1999/xlink">
<g id="graph0" class="graph" transform="scale(1 1) rotate(0) translate(4 211.38)">
<title>%3</title>
<polygon fill="white" stroke="none" points="-4,4 -4,-211.38 834.915,-211.38 834.915,4 -4,4"/>
<!-- A -->
<g id="node1" class="node"><title>A</title>
<polygon fill="lightgray" stroke="black" points="168.713,-141.167 145.713,-141.167 145.713,-123.167 168.713,-123.167 168.713,-141.167"/>
<text text-anchor="middle" x="157.213" y="-129.967" font-family="Times New Roman,serif" font-size="9.00">A</text>
</g>
<!-- A XOR B -->
<g id="node17" class="node"><title>A XOR B</title>
<ellipse fill="lightblue" stroke="black" cx="313.213" cy="-37.4767" rx="37.4533" ry="37.4533"/>
<text text-anchor="middle" x="313.213" y="-35.2767" font-family="Times New Roman,serif" font-size="9.00">A XOR B</text>
</g>
<!-- A&#45;&gt;A XOR B -->
<g id="edge1" class="edge"><title>A&#45;&gt;A XOR B</title>
<path fill="none" stroke="red" stroke-width="0.166255" d="M164.127,-123.11C167.771,-119.154 172.462,-114.492 177.213,-110.953 206.13,-89.416 242.291,-70.4692 270.055,-57.354"/>
<polygon fill="red" stroke="red" stroke-width="0.166255" points="271.535,-60.5256 279.126,-53.1345 268.583,-54.1786 271.535,-60.5256"/>
</g>
<!-- 2 -->
<g id="node19" class="node"><title>2</title>
<ellipse fill="lightblue" stroke="black" cx="491.213" cy="-37.4767" rx="14.7" ry="14.7"/>
<text text-anchor="middle" x="491.213" y="-35.2767" font-family="Times New Roman,serif" font-size="9.00">2</text>
</g>
<!-- A&#45;&gt;2 -->
<g id="edge2" class="edge"><title>A&#45;&gt;2</title>
<path fill="none" stroke="green" stroke-width="0.376612" stroke-dasharray="1,5" d="M163.381,-122.897C166.96,-118.683 171.821,-113.85 177.213,-110.953 249.851,-71.9299 278.975,-93.9478 359.213,-74.9533 397.239,-65.9517 440.846,-53.4734 467.195,-45.6929"/>
<polygon fill="green" stroke="green" stroke-width="0.376612" points="468.455,-48.9699 477.043,-42.7658 466.461,-42.2599 468.455,-48.9699"/>
</g>
<!-- B -->
<g id="node2" class="node"><title>B</title>
<polygon fill="lightgray" stroke="black" points="302.713,-207.38 279.713,-207.38 279.713,-189.38 302.713,-189.38 302.713,-207.38"/>
<text text-anchor="middle" x="291.213" y="-196.18" font-family="Times New Roman,serif" font-size="9.00">B</text>
</g>
<!-- B&#45;&gt;A XOR B -->
<g id="edge3" class="edge"><title>B&#45;&gt;A XOR B</title>
<path fill="none" stroke="green" stroke-width="0.516285" stroke-dasharray="1,5" d="M279.467,-196.686C240.032,-194.088 113.475,-183.496 89.2132,-153.38 77.3835,-138.696 78.1204,-126.201 89.2132,-110.953 129.339,-55.7964 212.333,-41.7517 265.258,-38.6578"/>
<polygon fill="green" stroke="green" stroke-width="0.516285" points="265.597,-42.1458 275.421,-38.1761 265.266,-35.1536 265.597,-42.1458"/>
</g>
<!-- 1 -->
<g id="node18" class="node"><title>1</title>
<ellipse fill="lightblue" stroke="black" cx="575.213" cy="-37.4767" rx="14.7" ry="14.7"/>
<text text-anchor="middle" x="575.213" y="-35.2767" font-family="Times New Roman,serif" font-size="9.00">1</text>
</g>
<!-- B&#45;&gt;1 -->
<g id="edge4" class="edge"><title>B&#45;&gt;1</title>
<path fill="none" stroke="green" stroke-width="0.104156" d="M302.764,-197.282C374.83,-196.558 760.793,-190.936 795.213,-153.38 892.177,-47.5818 776.841,-147.694 621.213,-74.9533 610.934,-70.1487 600.896,-62.6246 592.833,-55.6549"/>
<polygon fill="green" stroke="green" stroke-width="0.104156" points="594.971,-52.8686 585.218,-48.7296 590.261,-58.0472 594.971,-52.8686"/>
</g>
<!-- B&#45;&gt;2 -->
<g id="edge5" class="edge"><title>B&#45;&gt;2</title>
<path fill="none" stroke="green" stroke-width="0.182232" stroke-dasharray="1,5" d="M302.742,-196.713C342.054,-194.178 469.764,-183.696 494.213,-153.38 515.133,-127.44 507.483,-86.4495 499.636,-61.0812"/>
<polygon fill="green" stroke="green" stroke-width="0.182232" points="502.945,-59.9401 496.455,-51.5656 496.306,-62.1594 502.945,-59.9401"/>
</g>
<!-- 939 -->
<g id="node21" class="node"><title>939</title>
<ellipse fill="white" stroke="black" cx="21.2132" cy="-132.167" rx="21.4286" ry="21.4286"/>
<text text-anchor="middle" x="21.2132" y="-129.967" font-family="Times New Roman,serif" font-size="9.00">939</text>
</g>
<!-- B&#45;&gt;939 -->
<g id="edge44" class="edge"><title>B&#45;&gt;939</title>
<path fill="none" stroke="red" stroke-width="0.127718" d="M279.596,-196.596C244.734,-193.956 138.351,-183.773 56.2132,-153.38 53.2806,-152.295 50.3085,-150.975 47.3994,-149.535"/>
<polygon fill="red" stroke="red" stroke-width="0.127718" points="48.9043,-146.369 38.4472,-144.666 45.5599,-152.519 48.9043,-146.369"/>
</g>
<!-- &#45;3 -->
<g id="node3" class="node"><title>&#45;3</title>
<polygon fill="lightgray" stroke="black" points="744.213,-141.167 720.213,-141.167 720.213,-123.167 744.213,-123.167 744.213,-141.167"/>
<text text-anchor="middle" x="732.213" y="-129.967" font-family="Times New Roman,serif" font-size="9.00">&#45;3</text>
</g>
<!-- &#45;3&#45;&gt;1 -->
<g id="edge6" class="edge"><title>&#45;3&#45;&gt;1</title>
<path fill="none" stroke="red" stroke-width="0.330073" d="M725.049,-122.903C721.247,-118.895 716.314,-114.248 711.213,-110.953 675.022,-87.5818 658.482,-96.5639 621.213,-74.9533 611.528,-69.3374 601.685,-61.8252 593.603,-55.0779"/>
<polygon fill="red" stroke="red" stroke-width="0.330073" points="595.758,-52.3143 585.899,-48.435 591.187,-57.6158 595.758,-52.3143"/>
</g>
<!-- &#45;3&#45;&gt;2 -->
<g id="edge41" class="edge"><title>&#45;3&#45;&gt;2</title>
<path fill="none" stroke="green" stroke-width="0.292188" d="M725.628,-122.959C721.838,-118.763 716.738,-113.927 711.213,-110.953 647.032,-76.405 618.8,-102.245 551.213,-74.9533 537.121,-69.2627 522.524,-60.4636 511.257,-52.9334"/>
<polygon fill="green" stroke="green" stroke-width="0.292188" points="513.228,-50.0413 503.008,-47.2499 509.257,-55.8056 513.228,-50.0413"/>
</g>
<!-- 3 -->
<g id="node20" class="node"><title>3</title>
<ellipse fill="lightblue" stroke="black" cx="645.213" cy="-37.4767" rx="14.7" ry="14.7"/>
<text text-anchor="middle" x="645.213" y="-35.2767" font-family="Times New Roman,serif" font-size="9.00">3</text>
</g>
<!-- &#45;3&#45;&gt;3 -->
<g id="edge7" class="edge"><title>&#45;3&#45;&gt;3</title>
<path fill="none" stroke="red" stroke-width="0.303939" stroke-dasharray="1,5" d="M724.493,-122.941C710.53,-108.066 680.789,-76.3792 661.967,-56.3258"/>
<polygon fill="red" stroke="red" stroke-width="0.303939" points="664.274,-53.67 654.878,-48.7739 659.17,-58.4606 664.274,-53.67"/>
</g>
<!-- &#45;4 -->
<g id="node4" class="node"><title>&#45;4</title>
<polygon fill="lightgray" stroke="black" points="786.213,-141.167 762.213,-141.167 762.213,-123.167 786.213,-123.167 786.213,-141.167"/>
<text text-anchor="middle" x="774.213" y="-129.967" font-family="Times New Roman,serif" font-size="9.00">&#45;4</text>
</g>
<!-- &#45;4&#45;&gt;1 -->
<g id="edge43" class="edge"><title>&#45;4&#45;&gt;1</title>
<path fill="none" stroke="red" stroke-width="0.240118" d="M767.574,-123.057C763.768,-118.89 758.67,-114.051 753.213,-110.953 700.33,-80.9348 675.474,-102.403 621.213,-74.9533 611.088,-69.8312 601.07,-62.2657 592.981,-55.3507"/>
<polygon fill="red" stroke="red" stroke-width="0.240118" points="595.114,-52.5631 585.325,-48.5096 590.45,-57.7827 595.114,-52.5631"/>
</g>
<!-- &#45;4&#45;&gt;2 -->
<g id="edge8" class="edge"><title>&#45;4&#45;&gt;2</title>
<path fill="none" stroke="red" stroke-width="0.312201" d="M767.68,-122.859C763.906,-118.634 758.804,-113.803 753.213,-110.953 671.964,-69.5448 636.518,-107.189 551.213,-74.9533 536.996,-69.5808 522.396,-60.79 511.159,-53.1845"/>
<polygon fill="red" stroke="red" stroke-width="0.312201" points="513.137,-50.2971 502.938,-47.4271 509.121,-56.0307 513.137,-50.2971"/>
</g>
<!-- &#45;4&#45;&gt;3 -->
<g id="edge9" class="edge"><title>&#45;4&#45;&gt;3</title>
<path fill="none" stroke="red" stroke-width="0.268758" d="M766.341,-122.949C762.523,-119.134 757.782,-114.638 753.213,-110.953 724.607,-87.8828 688.723,-64.8534 666.376,-51.1371"/>
<polygon fill="red" stroke="red" stroke-width="0.268758" points="668.052,-48.0597 657.689,-45.8559 664.416,-54.0413 668.052,-48.0597"/>
</g>
<!-- &#45;5 -->
<g id="node5" class="node"><title>&#45;5</title>
<polygon fill="lightgray" stroke="black" points="390.213,-141.167 366.213,-141.167 366.213,-123.167 390.213,-123.167 390.213,-141.167"/>
<text text-anchor="middle" x="378.213" y="-129.967" font-family="Times New Roman,serif" font-size="9.00">&#45;5</text>
</g>
<!-- &#45;5&#45;&gt;A XOR B -->
<g id="edge10" class="edge"><title>&#45;5&#45;&gt;A XOR B</title>
<path fill="none" stroke="green" stroke-width="0.534001" stroke-dasharray="1,5" d="M372.445,-122.941C365.182,-112.584 352.205,-94.0792 340.245,-77.0245"/>
<polygon fill="green" stroke="green" stroke-width="0.534001" points="343.093,-74.9887 334.485,-68.8107 337.361,-79.0078 343.093,-74.9887"/>
</g>
<!-- &#45;5&#45;&gt;1 -->
<g id="edge11" class="edge"><title>&#45;5&#45;&gt;1</title>
<path fill="none" stroke="green" stroke-width="0.202332" d="M385.285,-123.15C389.306,-119.01 394.642,-114.167 400.213,-110.953 446.605,-84.1916 466.417,-97.0267 515.213,-74.9533 528.923,-68.7514 543.362,-60.0497 554.639,-52.7008"/>
<polygon fill="green" stroke="green" stroke-width="0.202332" points="556.909,-55.3938 563.282,-46.9305 553.022,-49.5719 556.909,-55.3938"/>
</g>
<!-- &#45;5&#45;&gt;2 -->
<g id="edge12" class="edge"><title>&#45;5&#45;&gt;2</title>
<path fill="none" stroke="green" stroke-width="0.448628" d="M386.654,-123.153C390.696,-119.382 395.642,-114.865 400.213,-110.953 424.323,-90.3208 453.116,-67.7141 471.762,-53.3282"/>
<polygon fill="green" stroke="green" stroke-width="0.448628" points="474.002,-56.0209 479.799,-47.1523 469.737,-50.4705 474.002,-56.0209"/>
</g>
<!-- &#45;6 -->
<g id="node6" class="node"><title>&#45;6</title>
<polygon fill="lightgray" stroke="black" points="565.213,-141.167 541.213,-141.167 541.213,-123.167 565.213,-123.167 565.213,-141.167"/>
<text text-anchor="middle" x="553.213" y="-129.967" font-family="Times New Roman,serif" font-size="9.00">&#45;6</text>
</g>
<!-- &#45;6&#45;&gt;A XOR B -->
<g id="edge13" class="edge"><title>&#45;6&#45;&gt;A XOR B</title>
<path fill="none" stroke="red" stroke-width="0.108368" stroke-dasharray="1,5" d="M540.982,-126.443C507.571,-113.539 413.515,-77.2139 357.263,-55.489"/>
<polygon fill="red" stroke="red" stroke-width="0.108368" points="358.488,-52.2104 347.899,-51.8726 355.966,-58.7403 358.488,-52.2104"/>
</g>
<!-- &#45;6&#45;&gt;1 -->
<g id="edge14" class="edge"><title>&#45;6&#45;&gt;1</title>
<path fill="none" stroke="red" stroke-width="0.101167" stroke-dasharray="1,5" d="M555.166,-122.941C558.375,-109.421 564.88,-82.0129 569.612,-62.0745"/>
<polygon fill="red" stroke="red" stroke-width="0.101167" points="573.059,-62.7101 571.963,-52.1721 566.248,-61.0935 573.059,-62.7101"/>
</g>
<!-- &#45;6&#45;&gt;2 -->
<g id="edge15" class="edge"><title>&#45;6&#45;&gt;2</title>
<path fill="none" stroke="red" stroke-width="0.23188" d="M547.711,-122.941C538.151,-108.648 518.209,-78.8352 504.763,-58.7336"/>
<polygon fill="red" stroke="red" stroke-width="0.23188" points="507.572,-56.6378 499.103,-50.2718 501.754,-60.5297 507.572,-56.6378"/>
</g>
<!-- &#45;6&#45;&gt;3 -->
<g id="edge16" class="edge"><title>&#45;6&#45;&gt;3</title>
<path fill="none" stroke="green" stroke-width="0.681267" d="M561.378,-122.941C576.208,-107.999 607.873,-76.0972 627.762,-56.0591"/>
<polygon fill="green" stroke="green" stroke-width="0.681267" points="630.432,-58.337 634.993,-48.7739 625.464,-53.4058 630.432,-58.337"/>
</g>
<!-- &#45;7 -->
<g id="node7" class="node"><title>&#45;7</title>
<polygon fill="lightgray" stroke="black" points="348.213,-141.167 324.213,-141.167 324.213,-123.167 348.213,-123.167 348.213,-141.167"/>
<text text-anchor="middle" x="336.213" y="-129.967" font-family="Times New Roman,serif" font-size="9.00">&#45;7</text>
</g>
<!-- &#45;7&#45;&gt;A XOR B -->
<g id="edge42" class="edge"><title>&#45;7&#45;&gt;A XOR B</title>
<path fill="none" stroke="red" stroke-width="0.195463" d="M334.172,-122.941C331.936,-113.927 328.167,-98.7417 324.438,-83.7117"/>
<polygon fill="red" stroke="red" stroke-width="0.195463" points="327.814,-82.7865 322.009,-73.9237 321.02,-84.4724 327.814,-82.7865"/>
</g>
<!-- &#45;7&#45;&gt;1 -->
<g id="edge17" class="edge"><title>&#45;7&#45;&gt;1</title>
<path fill="none" stroke="green" stroke-width="0.114825" d="M342.802,-122.965C346.593,-118.771 351.692,-113.935 357.213,-110.953 420.585,-76.7301 448.467,-102.011 515.213,-74.9533 529.298,-69.2436 543.894,-60.444 555.164,-52.9183"/>
<polygon fill="green" stroke="green" stroke-width="0.114825" points="557.162,-55.7921 563.415,-47.2392 553.193,-50.0259 557.162,-55.7921"/>
</g>
<!-- &#45;8 -->
<g id="node8" class="node"><title>&#45;8</title>
<polygon fill="lightgray" stroke="black" points="702.213,-141.167 678.213,-141.167 678.213,-123.167 702.213,-123.167 702.213,-141.167"/>
<text text-anchor="middle" x="690.213" y="-129.967" font-family="Times New Roman,serif" font-size="9.00">&#45;8</text>
</g>
<!-- &#45;8&#45;&gt;1 -->
<g id="edge46" class="edge"><title>&#45;8&#45;&gt;1</title>
<path fill="none" stroke="green" stroke-width="0.162286" d="M682.252,-123.055C678.415,-119.264 673.684,-114.757 669.213,-110.953 648.902,-93.6743 642.329,-91.2392 621.213,-74.9533 612.348,-68.116 602.622,-60.4305 594.405,-53.8835"/>
<polygon fill="green" stroke="green" stroke-width="0.162286" points="596.486,-51.0657 586.489,-47.5563 592.115,-56.5338 596.486,-51.0657"/>
</g>
<!-- &#45;8&#45;&gt;2 -->
<g id="edge18" class="edge"><title>&#45;8&#45;&gt;2</title>
<path fill="none" stroke="red" stroke-width="0.295712" stroke-dasharray="1,5" d="M683.536,-123.122C679.719,-118.974 674.623,-114.132 669.213,-110.953 621.938,-83.1772 601.252,-97.3701 551.213,-74.9533 537.48,-68.8013 523.041,-60.1013 511.77,-52.7409"/>
<polygon fill="red" stroke="red" stroke-width="0.295712" points="513.389,-49.6128 503.132,-46.9585 509.495,-55.4298 513.389,-49.6128"/>
</g>
<!-- &#45;8&#45;&gt;3 -->
<g id="edge19" class="edge"><title>&#45;8&#45;&gt;3</title>
<path fill="none" stroke="red" stroke-width="0.385773" stroke-dasharray="1,5" d="M686.22,-122.941C679.454,-109.005 665.526,-80.3157 655.788,-60.2586"/>
<polygon fill="red" stroke="red" stroke-width="0.385773" points="658.91,-58.6756 651.394,-51.2083 652.613,-61.7328 658.91,-58.6756"/>
</g>
<!-- &#45;9 -->
<g id="node9" class="node"><title>&#45;9</title>
<polygon fill="lightgray" stroke="black" points="258.213,-141.167 234.213,-141.167 234.213,-123.167 258.213,-123.167 258.213,-141.167"/>
<text text-anchor="middle" x="246.213" y="-129.967" font-family="Times New Roman,serif" font-size="9.00">&#45;9</text>
</g>
<!-- &#45;9&#45;&gt;A XOR B -->
<g id="edge40" class="edge"><title>&#45;9&#45;&gt;A XOR B</title>
<path fill="none" stroke="green" stroke-width="0.240418" d="M252.159,-122.941C259.7,-112.508 273.218,-93.8067 285.621,-76.6485"/>
<polygon fill="green" stroke="green" stroke-width="0.240418" points="288.567,-78.5472 291.589,-68.3924 282.894,-74.4465 288.567,-78.5472"/>
</g>
<!-- &#45;9&#45;&gt;1 -->
<g id="edge20" class="edge"><title>&#45;9&#45;&gt;1</title>
<path fill="none" stroke="green" stroke-width="0.25989" d="M253.096,-122.79C257.062,-118.544 262.405,-113.716 268.213,-110.953 368.399,-63.3082 410.831,-112.523 515.213,-74.9533 529.694,-69.7412 544.485,-60.7985 555.758,-53.0723"/>
<polygon fill="green" stroke="green" stroke-width="0.25989" points="557.85,-55.8792 563.971,-47.2314 553.793,-50.1746 557.85,-55.8792"/>
</g>
<!-- &#45;10 -->
<g id="node10" class="node"><title>&#45;10</title>
<polygon fill="lightgray" stroke="black" points="437.713,-141.167 408.713,-141.167 408.713,-123.167 437.713,-123.167 437.713,-141.167"/>
<text text-anchor="middle" x="423.213" y="-129.967" font-family="Times New Roman,serif" font-size="9.00">&#45;10</text>
</g>
<!-- &#45;10&#45;&gt;A XOR B -->
<g id="edge21" class="edge"><title>&#45;10&#45;&gt;A XOR B</title>
<path fill="none" stroke="green" stroke-width="0.425054" d="M413.451,-122.941C399.153,-110.892 371.766,-87.8154 349.228,-68.8238"/>
<polygon fill="green" stroke="green" stroke-width="0.425054" points="351.39,-66.0687 341.487,-62.3014 346.879,-71.4217 351.39,-66.0687"/>
</g>
<!-- &#45;10&#45;&gt;1 -->
<g id="edge22" class="edge"><title>&#45;10&#45;&gt;1</title>
<path fill="none" stroke="red" stroke-width="0.300865" d="M432.195,-122.813C436.556,-118.969 441.974,-114.487 447.213,-110.953 475.563,-91.8306 485.479,-91.8429 515.213,-74.9533 528.298,-67.5212 542.714,-58.7756 554.135,-51.7112"/>
<polygon fill="red" stroke="red" stroke-width="0.300865" points="556.289,-54.4933 562.93,-46.2382 552.59,-48.5501 556.289,-54.4933"/>
</g>
<!-- &#45;10&#45;&gt;2 -->
<g id="edge23" class="edge"><title>&#45;10&#45;&gt;2</title>
<path fill="none" stroke="green" stroke-width="0.418289" d="M429.248,-122.941C439.837,-108.506 462.039,-78.2431 476.788,-58.1392"/>
<polygon fill="green" stroke="green" stroke-width="0.418289" points="479.691,-60.0991 482.784,-49.9658 474.047,-55.9584 479.691,-60.0991"/>
</g>
<!-- &#45;11 -->
<g id="node11" class="node"><title>&#45;11</title>
<polygon fill="lightgray" stroke="black" points="484.713,-141.167 455.713,-141.167 455.713,-123.167 484.713,-123.167 484.713,-141.167"/>
<text text-anchor="middle" x="470.213" y="-129.967" font-family="Times New Roman,serif" font-size="9.00">&#45;11</text>
</g>
<!-- &#45;11&#45;&gt;A XOR B -->
<g id="edge24" class="edge"><title>&#45;11&#45;&gt;A XOR B</title>
<path fill="none" stroke="red" stroke-width="0.132875" d="M461.641,-122.805C457.47,-118.958 452.273,-114.478 447.213,-110.953 418.287,-90.8047 383.157,-71.9903 356.126,-58.5825"/>
<polygon fill="red" stroke="red" stroke-width="0.132875" points="357.445,-55.3314 346.925,-54.0722 354.364,-61.6167 357.445,-55.3314"/>
</g>
<!-- &#45;11&#45;&gt;2 -->
<g id="edge25" class="edge"><title>&#45;11&#45;&gt;2</title>
<path fill="none" stroke="green" stroke-width="0.284275" d="M472.077,-122.941C475.14,-109.421 481.35,-82.0129 485.867,-62.0745"/>
<polygon fill="green" stroke="green" stroke-width="0.284275" points="489.314,-62.6983 488.11,-52.1721 482.487,-61.1515 489.314,-62.6983"/>
</g>
<!-- &#45;11&#45;&gt;3 -->
<g id="edge26" class="edge"><title>&#45;11&#45;&gt;3</title>
<path fill="none" stroke="green" stroke-width="0.340399" d="M484.74,-126.242C509.267,-117.624 560.046,-98.4682 599.213,-74.9533 608.812,-69.1906 618.642,-61.6576 626.738,-54.9344"/>
<polygon fill="green" stroke="green" stroke-width="0.340399" points="629.138,-57.4876 634.465,-48.3294 624.59,-52.1667 629.138,-57.4876"/>
</g>
<!-- &#45;12 -->
<g id="node12" class="node"><title>&#45;12</title>
<polygon fill="lightgray" stroke="black" points="215.713,-141.167 186.713,-141.167 186.713,-123.167 215.713,-123.167 215.713,-141.167"/>
<text text-anchor="middle" x="201.213" y="-129.967" font-family="Times New Roman,serif" font-size="9.00">&#45;12</text>
</g>
<!-- &#45;12&#45;&gt;A XOR B -->
<g id="edge27" class="edge"><title>&#45;12&#45;&gt;A XOR B</title>
<path fill="none" stroke="red" stroke-width="0.18148" d="M211.001,-122.881C215.345,-119.215 220.525,-114.858 225.213,-110.953 242.049,-96.9311 260.78,-81.4831 276.619,-68.4647"/>
<polygon fill="red" stroke="red" stroke-width="0.18148" points="279.107,-70.9506 284.613,-61.8988 274.664,-65.5414 279.107,-70.9506"/>
</g>
<!-- &#45;12&#45;&gt;2 -->
<g id="edge28" class="edge"><title>&#45;12&#45;&gt;2</title>
<path fill="none" stroke="green" stroke-width="0.328455" d="M209,-123.08C213.407,-118.92 219.225,-114.08 225.213,-110.953 279.877,-82.4105 299.715,-91.1661 359.213,-74.9533 396.915,-64.6798 440.615,-52.5628 467.071,-45.2039"/>
<polygon fill="green" stroke="green" stroke-width="0.328455" points="468.268,-48.5038 476.963,-42.4504 466.391,-41.7601 468.268,-48.5038"/>
</g>
<!-- &#45;13 -->
<g id="node13" class="node"><title>&#45;13</title>
<polygon fill="lightgray" stroke="black" points="612.713,-141.167 583.713,-141.167 583.713,-123.167 612.713,-123.167 612.713,-141.167"/>
<text text-anchor="middle" x="598.213" y="-129.967" font-family="Times New Roman,serif" font-size="9.00">&#45;13</text>
</g>
<!-- &#45;13&#45;&gt;A XOR B -->
<g id="edge29" class="edge"><title>&#45;13&#45;&gt;A XOR B</title>
<path fill="none" stroke="green" stroke-width="0.231714" d="M590.416,-123.1C586.005,-118.946 580.188,-114.105 574.213,-110.953 537.001,-91.3236 424.305,-63.728 359.821,-48.8912"/>
<polygon fill="green" stroke="green" stroke-width="0.231714" points="360.433,-45.4409 349.904,-46.6227 358.872,-52.2646 360.433,-45.4409"/>
</g>
<!-- &#45;13&#45;&gt;1 -->
<g id="edge30" class="edge"><title>&#45;13&#45;&gt;1</title>
<path fill="none" stroke="green" stroke-width="0.379774" d="M596.172,-122.941C592.817,-109.421 586.016,-82.0129 581.069,-62.0745"/>
<polygon fill="green" stroke="green" stroke-width="0.379774" points="584.417,-61.0348 578.612,-52.1721 577.623,-62.7207 584.417,-61.0348"/>
</g>
<!-- &#45;13&#45;&gt;2 -->
<g id="edge31" class="edge"><title>&#45;13&#45;&gt;2</title>
<path fill="none" stroke="red" stroke-width="0.219621" stroke-dasharray="1,5" d="M588.718,-122.941C571.043,-107.63 532.811,-74.5112 509.822,-54.5967"/>
<polygon fill="red" stroke="red" stroke-width="0.219621" points="511.958,-51.8168 502.108,-47.9147 507.375,-57.1077 511.958,-51.8168"/>
</g>
<!-- &#45;13&#45;&gt;3 -->
<g id="edge32" class="edge"><title>&#45;13&#45;&gt;3</title>
<path fill="none" stroke="red" stroke-width="1.18953" d="M602.384,-122.941C609.45,-109.005 623.998,-80.3157 634.168,-60.2586"/>
<polygon fill="red" stroke="red" stroke-width="1.18953" points="637.356,-61.7101 638.757,-51.2083 631.113,-58.5443 637.356,-61.7101"/>
</g>
<!-- &#45;14 -->
<g id="node14" class="node"><title>&#45;14</title>
<polygon fill="lightgray" stroke="black" points="305.713,-141.167 276.713,-141.167 276.713,-123.167 305.713,-123.167 305.713,-141.167"/>
<text text-anchor="middle" x="291.213" y="-129.967" font-family="Times New Roman,serif" font-size="9.00">&#45;14</text>
</g>
<!-- &#45;14&#45;&gt;A XOR B -->
<g id="edge33" class="edge"><title>&#45;14&#45;&gt;A XOR B</title>
<path fill="none" stroke="green" stroke-width="0.128946" d="M293.166,-122.941C295.267,-114.085 298.783,-99.2716 302.289,-84.5014"/>
<polygon fill="green" stroke="green" stroke-width="0.128946" points="305.793,-84.8945 304.697,-74.3565 298.982,-83.2779 305.793,-84.8945"/>
</g>
<!-- &#45;14&#45;&gt;1 -->
<g id="edge34" class="edge"><title>&#45;14&#45;&gt;1</title>
<path fill="none" stroke="red" stroke-width="0.869164" stroke-dasharray="1,5" d="M298.899,-122.876C303.277,-118.657 309.099,-113.825 315.213,-110.953 396.965,-72.5632 430.755,-106.953 515.213,-74.9533 529.426,-69.5686 544.025,-60.7774 555.264,-53.1748"/>
<polygon fill="red" stroke="red" stroke-width="0.869164" points="557.3,-56.0221 563.486,-47.4203 553.286,-50.2873 557.3,-56.0221"/>
</g>
<!-- &#45;15 -->
<g id="node15" class="node"><title>&#45;15</title>
<polygon fill="lightgray" stroke="black" points="127.713,-141.167 98.7132,-141.167 98.7132,-123.167 127.713,-123.167 127.713,-141.167"/>
<text text-anchor="middle" x="113.213" y="-129.967" font-family="Times New Roman,serif" font-size="9.00">&#45;15</text>
</g>
<!-- &#45;15&#45;&gt;A XOR B -->
<g id="edge35" class="edge"><title>&#45;15&#45;&gt;A XOR B</title>
<path fill="none" stroke="red" stroke-width="0.295803" stroke-dasharray="1,5" d="M121.199,-122.959C125.398,-118.965 130.791,-114.314 136.213,-110.953 178.057,-85.0205 230.796,-64.8172 267.779,-52.4045"/>
<polygon fill="red" stroke="red" stroke-width="0.295803" points="268.897,-55.7213 277.297,-49.2649 266.704,-49.0737 268.897,-55.7213"/>
</g>
<!-- &#45;15&#45;&gt;2 -->
<g id="edge36" class="edge"><title>&#45;15&#45;&gt;2</title>
<path fill="none" stroke="red" stroke-width="0.528133" stroke-dasharray="1,5" d="M120.496,-122.828C124.668,-118.594 130.251,-113.764 136.213,-110.953 227.023,-68.1437 261.127,-96.3557 359.213,-74.9533 397.391,-66.6229 440.956,-53.9539 467.254,-45.9509"/>
<polygon fill="red" stroke="red" stroke-width="0.528133" points="468.55,-49.2143 477.081,-42.9323 466.494,-42.5229 468.55,-49.2143"/>
</g>
<!-- &#45;16 -->
<g id="node16" class="node"><title>&#45;16</title>
<polygon fill="lightgray" stroke="black" points="659.713,-141.167 630.713,-141.167 630.713,-123.167 659.713,-123.167 659.713,-141.167"/>
<text text-anchor="middle" x="645.213" y="-129.967" font-family="Times New Roman,serif" font-size="9.00">&#45;16</text>
</g>
<!-- &#45;16&#45;&gt;A XOR B -->
<g id="edge37" class="edge"><title>&#45;16&#45;&gt;A XOR B</title>
<path fill="none" stroke="green" stroke-width="1.7394" d="M637.851,-122.989C633.656,-118.802 628.076,-113.966 622.213,-110.953 559.307,-78.634 536.067,-91.1036 467.213,-74.9533 431.043,-66.4694 390.12,-56.7714 359.554,-49.5087"/>
<polygon fill="green" stroke="green" stroke-width="1.7394" points="360.146,-46.0519 349.608,-47.1444 358.527,-52.8622 360.146,-46.0519"/>
</g>
<!-- &#45;16&#45;&gt;1 -->
<g id="edge38" class="edge"><title>&#45;16&#45;&gt;1</title>
<path fill="none" stroke="red" stroke-width="0.303166" d="M639.001,-122.941C628.1,-108.506 605.245,-78.2431 590.062,-58.1392"/>
<polygon fill="red" stroke="red" stroke-width="0.303166" points="592.709,-55.8365 583.89,-49.9658 587.123,-60.0551 592.709,-55.8365"/>
</g>
<!-- &#45;16&#45;&gt;3 -->
<g id="edge39" class="edge"><title>&#45;16&#45;&gt;3</title>
<path fill="none" stroke="green" stroke-width="0.19968" d="M645.213,-122.941C645.213,-109.558 645.213,-82.5672 645.213,-62.6832"/>
<polygon fill="green" stroke="green" stroke-width="0.19968" points="648.713,-62.4992 645.213,-52.4992 641.713,-62.4992 648.713,-62.4992"/>
</g>
<!-- 939&#45;&gt;A XOR B -->
<g id="edge45" class="edge"><title>939&#45;&gt;A XOR B</title>
<path fill="none" stroke="green" stroke-width="0.641231" d="M38.9378,-119.789C44.3416,-116.636 50.3948,-113.409 56.2132,-110.953 127.088,-81.0466 214.061,-59.4592 266.485,-47.9714"/>
<polygon fill="green" stroke="green" stroke-width="0.641231" points="267.459,-51.3419 276.494,-45.8091 265.98,-44.4998 267.459,-51.3419"/>
</g>
</g>
</svg>
