<?xml version="1.0" encoding="UTF-8" standalone="no"?>
<!DOCTYPE svg PUBLIC "-//W3C//DTD SVG 1.1//EN"
 "http://www.w3.org/Graphics/SVG/1.1/DTD/svg11.dtd">
<!-- Generated by graphviz version 2.38.0 (20140413.2041)
 -->
<!-- Title: %3 Pages: 1 -->
<svg width="1083pt" height="438pt"
 viewBox="0.00 0.00 1083.41 437.93" xmlns="http://www.w3.org/2000/svg" xmlns:xlink="http://www.w3.org/1999/xlink">
<g id="graph0" class="graph" transform="scale(1 1) rotate(0) translate(4 433.931)">
<title>%3</title>
<polygon fill="white" stroke="none" points="-4,4 -4,-433.931 1079.41,-433.931 1079.41,4 -4,4"/>
<!-- A -->
<g id="node1" class="node"><title>A</title>
<polygon fill="lightgray" stroke="black" points="358.696,-285.291 335.696,-285.291 335.696,-267.291 358.696,-267.291 358.696,-285.291"/>
<text text-anchor="middle" x="347.196" y="-274.091" font-family="Times New Roman,serif" font-size="9.00">A</text>
</g>
<!-- A XOR B -->
<g id="node17" class="node"><title>A XOR B</title>
<ellipse fill="lightblue" stroke="black" cx="381.196" cy="-181.602" rx="37.4533" ry="37.4533"/>
<text text-anchor="middle" x="381.196" y="-179.402" font-family="Times New Roman,serif" font-size="9.00">A XOR B</text>
</g>
<!-- A&#45;&gt;A XOR B -->
<g id="edge1" class="edge"><title>A&#45;&gt;A XOR B</title>
<path fill="none" stroke="green" stroke-width="0.413316" d="M350.214,-267.066C353.605,-257.82 359.379,-242.079 365.03,-226.673"/>
<polygon fill="green" stroke="green" stroke-width="0.413316" points="368.352,-227.78 368.51,-217.186 361.78,-225.369 368.352,-227.78"/>
</g>
<!-- 1 -->
<g id="node18" class="node"><title>1</title>
<ellipse fill="lightblue" stroke="black" cx="562.196" cy="-181.602" rx="14.7" ry="14.7"/>
<text text-anchor="middle" x="562.196" y="-179.402" font-family="Times New Roman,serif" font-size="9.00">1</text>
</g>
<!-- A&#45;&gt;1 -->
<g id="edge2" class="edge"><title>A&#45;&gt;1</title>
<path fill="none" stroke="red" stroke-width="0.355484" d="M353.919,-266.959C357.514,-262.934 362.219,-258.291 367.196,-255.078 423.083,-218.998 499.491,-197.318 537.962,-187.994"/>
<polygon fill="red" stroke="red" stroke-width="0.355484" points="538.826,-191.387 547.759,-185.69 537.223,-184.573 538.826,-191.387"/>
</g>
<!-- B -->
<g id="node2" class="node"><title>B</title>
<polygon fill="lightgray" stroke="black" points="156.696,-285.291 133.696,-285.291 133.696,-267.291 156.696,-267.291 156.696,-285.291"/>
<text text-anchor="middle" x="145.196" y="-274.091" font-family="Times New Roman,serif" font-size="9.00">B</text>
</g>
<!-- B&#45;&gt;A XOR B -->
<g id="edge3" class="edge"><title>B&#45;&gt;A XOR B</title>
<path fill="none" stroke="red" stroke-width="0.210263" d="M154.306,-267.006C159.074,-262.993 165.164,-258.347 171.196,-255.078 224.363,-226.269 291.176,-205.562 334.977,-193.84"/>
<polygon fill="red" stroke="red" stroke-width="0.210263" points="335.994,-197.191 344.776,-191.265 334.215,-190.421 335.994,-197.191"/>
</g>
<!-- &#45;3 -->
<g id="node3" class="node"><title>&#45;3</title>
<polygon fill="lightgray" stroke="black" points="197.196,-429.931 173.196,-429.931 173.196,-411.931 197.196,-411.931 197.196,-429.931"/>
<text text-anchor="middle" x="185.196" y="-418.731" font-family="Times New Roman,serif" font-size="9.00">&#45;3</text>
</g>
<!-- &#45;3&#45;&gt;A XOR B -->
<g id="edge4" class="edge"><title>&#45;3&#45;&gt;A XOR B</title>
<path fill="none" stroke="green" stroke-width="0.178289" d="M185.09,-411.648C185.189,-385.504 188.871,-303.606 229.196,-255.078 256.151,-222.641 300.994,-203.747 335.006,-193.432"/>
<polygon fill="green" stroke="green" stroke-width="0.178289" points="336.097,-196.76 344.734,-190.624 334.155,-190.035 336.097,-196.76"/>
</g>
<!-- &#45;3&#45;&gt;1 -->
<g id="edge5" class="edge"><title>&#45;3&#45;&gt;1</title>
<path fill="none" stroke="red" stroke-width="0.169029" stroke-dasharray="1,5" d="M197.221,-418.457C242.883,-412.279 407.814,-384.611 504.196,-297.505 531.735,-272.616 547.956,-231.647 555.951,-205.946"/>
<polygon fill="red" stroke="red" stroke-width="0.169029" points="559.332,-206.856 558.796,-196.274 552.617,-204.88 559.332,-206.856"/>
</g>
<!-- 2 -->
<g id="node19" class="node"><title>2</title>
<ellipse fill="lightblue" stroke="black" cx="690.196" cy="-181.602" rx="14.7" ry="14.7"/>
<text text-anchor="middle" x="690.196" y="-179.402" font-family="Times New Roman,serif" font-size="9.00">2</text>
</g>
<!-- &#45;3&#45;&gt;2 -->
<g id="edge6" class="edge"><title>&#45;3&#45;&gt;2</title>
<path fill="none" stroke="red" stroke-width="0.249931" stroke-dasharray="1,5" d="M197.281,-419.675C263.394,-418.152 581.645,-409.175 673.196,-375.931 730.658,-355.065 757.856,-351.671 786.196,-297.505 794.938,-280.797 796.11,-271.118 786.196,-255.078 767.387,-224.644 740.946,-242.837 714.196,-219.078 709.403,-214.821 705.158,-209.397 701.622,-204.04"/>
<polygon fill="red" stroke="red" stroke-width="0.249931" points="704.523,-202.072 696.368,-195.308 698.525,-205.681 704.523,-202.072"/>
</g>
<!-- 909 -->
<g id="node24" class="node"><title>909</title>
<ellipse fill="white" stroke="black" cx="95.1963" cy="-354.718" rx="21.4286" ry="21.4286"/>
<text text-anchor="middle" x="95.1963" y="-352.518" font-family="Times New Roman,serif" font-size="9.00">909</text>
</g>
<!-- &#45;3&#45;&gt;909 -->
<g id="edge59" class="edge"><title>&#45;3&#45;&gt;909</title>
<path fill="none" stroke="green" stroke-width="0.252527" d="M173.798,-411.798C160.384,-402.228 137.715,-386.054 120.159,-373.528"/>
<polygon fill="green" stroke="green" stroke-width="0.252527" points="122.187,-370.676 112.014,-367.717 118.122,-376.374 122.187,-370.676"/>
</g>
<!-- 702 -->
<g id="node27" class="node"><title>702</title>
<ellipse fill="white" stroke="black" cx="94.1963" cy="-276.291" rx="21.4286" ry="21.4286"/>
<text text-anchor="middle" x="94.1963" y="-274.091" font-family="Times New Roman,serif" font-size="9.00">702</text>
</g>
<!-- &#45;3&#45;&gt;702 -->
<g id="edge47" class="edge"><title>&#45;3&#45;&gt;702</title>
<path fill="none" stroke="red" stroke-width="0.409732" stroke-dasharray="1,5" d="M180.043,-411.853C166.915,-391.275 131.766,-336.181 110.738,-303.22"/>
<polygon fill="red" stroke="red" stroke-width="0.409732" points="113.54,-301.105 105.211,-294.557 107.639,-304.87 113.54,-301.105"/>
</g>
<!-- &#45;4 -->
<g id="node4" class="node"><title>&#45;4</title>
<polygon fill="lightgray" stroke="black" points="614.196,-285.291 590.196,-285.291 590.196,-267.291 614.196,-267.291 614.196,-285.291"/>
<text text-anchor="middle" x="602.196" y="-274.091" font-family="Times New Roman,serif" font-size="9.00">&#45;4</text>
</g>
<!-- &#45;4&#45;&gt;A XOR B -->
<g id="edge7" class="edge"><title>&#45;4&#45;&gt;A XOR B</title>
<path fill="none" stroke="red" stroke-width="0.122747" d="M590,-270.176C559.077,-257.207 476.415,-222.537 424.855,-200.912"/>
<polygon fill="red" stroke="red" stroke-width="0.122747" points="426.185,-197.675 415.609,-197.035 423.477,-204.13 426.185,-197.675"/>
</g>
<!-- &#45;4&#45;&gt;1 -->
<g id="edge8" class="edge"><title>&#45;4&#45;&gt;1</title>
<path fill="none" stroke="red" stroke-width="0.145734" d="M598.647,-267.066C592.693,-253.269 580.498,-225.012 571.857,-204.987"/>
<polygon fill="red" stroke="red" stroke-width="0.145734" points="575.004,-203.446 567.828,-195.651 568.577,-206.22 575.004,-203.446"/>
</g>
<!-- &#45;4&#45;&gt;2 -->
<g id="edge9" class="edge"><title>&#45;4&#45;&gt;2</title>
<path fill="none" stroke="green" stroke-width="0.449625" stroke-dasharray="1,5" d="M610.006,-267.066C624.191,-252.124 654.479,-220.222 673.503,-200.184"/>
<polygon fill="green" stroke="green" stroke-width="0.449625" points="676.073,-202.561 680.42,-192.899 670.996,-197.741 676.073,-202.561"/>
</g>
<!-- &#45;5 -->
<g id="node5" class="node"><title>&#45;5</title>
<polygon fill="lightgray" stroke="black" points="664.196,-363.718 640.196,-363.718 640.196,-345.718 664.196,-345.718 664.196,-363.718"/>
<text text-anchor="middle" x="652.196" y="-352.518" font-family="Times New Roman,serif" font-size="9.00">&#45;5</text>
</g>
<!-- &#45;5&#45;&gt;A XOR B -->
<g id="edge10" class="edge"><title>&#45;5&#45;&gt;A XOR B</title>
<path fill="none" stroke="red" stroke-width="0.240454" d="M640.081,-354.073C577.95,-355.611 295.917,-359.093 242.196,-297.505 206.45,-256.523 283.195,-218.258 336.241,-197.889"/>
<polygon fill="red" stroke="red" stroke-width="0.240454" points="337.699,-201.08 345.838,-194.297 335.246,-194.524 337.699,-201.08"/>
</g>
<!-- &#45;5&#45;&gt;1 -->
<g id="edge11" class="edge"><title>&#45;5&#45;&gt;1</title>
<path fill="none" stroke="red" stroke-width="0.544914" d="M640.121,-347.812C623.857,-339.174 595.324,-321.48 581.196,-297.505 564.728,-269.558 561.439,-231.513 561.278,-207.002"/>
<polygon fill="red" stroke="red" stroke-width="0.544914" points="564.78,-206.814 561.388,-196.777 557.78,-206.739 564.78,-206.814"/>
</g>
<!-- &#45;5&#45;&gt;2 -->
<g id="edge12" class="edge"><title>&#45;5&#45;&gt;2</title>
<path fill="none" stroke="green" stroke-width="0.224349" d="M664.209,-352.125C689.016,-348.115 745.56,-335.084 769.196,-297.505 779.236,-281.543 778.164,-271.666 769.196,-255.078 755.302,-229.378 734.879,-239.712 714.196,-219.078 709.658,-214.551 705.499,-209.034 701.964,-203.676"/>
<polygon fill="green" stroke="green" stroke-width="0.224349" points="704.861,-201.704 696.648,-195.011 698.894,-205.365 704.861,-201.704"/>
</g>
<!-- 714 -->
<g id="node23" class="node"><title>714</title>
<ellipse fill="white" stroke="black" cx="739.196" cy="-276.291" rx="21.4286" ry="21.4286"/>
<text text-anchor="middle" x="739.196" y="-274.091" font-family="Times New Roman,serif" font-size="9.00">714</text>
</g>
<!-- &#45;5&#45;&gt;714 -->
<g id="edge50" class="edge"><title>&#45;5&#45;&gt;714</title>
<path fill="none" stroke="green" stroke-width="0.292302" d="M661.507,-345.539C674.355,-334.252 697.954,-313.521 715.784,-297.858"/>
<polygon fill="green" stroke="green" stroke-width="0.292302" points="718.308,-300.3 723.51,-291.071 713.688,-295.041 718.308,-300.3"/>
</g>
<!-- &#45;6 -->
<g id="node6" class="node"><title>&#45;6</title>
<polygon fill="lightgray" stroke="black" points="448.196,-285.291 424.196,-285.291 424.196,-267.291 448.196,-267.291 448.196,-285.291"/>
<text text-anchor="middle" x="436.196" y="-274.091" font-family="Times New Roman,serif" font-size="9.00">&#45;6</text>
</g>
<!-- &#45;6&#45;&gt;A XOR B -->
<g id="edge13" class="edge"><title>&#45;6&#45;&gt;A XOR B</title>
<path fill="none" stroke="red" stroke-width="0.13839" stroke-dasharray="1,5" d="M431.315,-267.066C425.415,-257.122 415.057,-239.666 405.283,-223.194"/>
<polygon fill="red" stroke="red" stroke-width="0.13839" points="408.058,-221.012 399.945,-214.198 402.038,-224.584 408.058,-221.012"/>
</g>
<!-- &#45;6&#45;&gt;2 -->
<g id="edge14" class="edge"><title>&#45;6&#45;&gt;2</title>
<path fill="none" stroke="green" stroke-width="0.801797" d="M442.843,-267.195C446.651,-263.032 451.748,-258.192 457.196,-255.078 508.875,-225.542 529.415,-236.938 586.196,-219.078 614.146,-210.287 645.869,-198.962 666.852,-191.279"/>
<polygon fill="green" stroke="green" stroke-width="0.801797" points="668.323,-194.468 676.497,-187.727 665.904,-187.899 668.323,-194.468"/>
</g>
<!-- &#45;7 -->
<g id="node7" class="node"><title>&#45;7</title>
<polygon fill="lightgray" stroke="black" points="275.196,-285.291 251.196,-285.291 251.196,-267.291 275.196,-267.291 275.196,-285.291"/>
<text text-anchor="middle" x="263.196" y="-274.091" font-family="Times New Roman,serif" font-size="9.00">&#45;7</text>
</g>
<!-- &#45;7&#45;&gt;A XOR B -->
<g id="edge15" class="edge"><title>&#45;7&#45;&gt;A XOR B</title>
<path fill="none" stroke="red" stroke-width="0.356244" d="M271.154,-267.177C274.991,-263.384 279.722,-258.878 284.196,-255.078 302.649,-239.409 324.128,-223.171 342.177,-210.047"/>
<polygon fill="red" stroke="red" stroke-width="0.356244" points="344.674,-212.562 350.734,-203.871 340.577,-206.886 344.674,-212.562"/>
</g>
<!-- &#45;7&#45;&gt;2 -->
<g id="edge16" class="edge"><title>&#45;7&#45;&gt;2</title>
<path fill="none" stroke="red" stroke-width="0.775511" d="M269.306,-267.265C273.093,-262.905 278.343,-257.852 284.196,-255.078 406.351,-197.2 454.522,-249.63 586.196,-219.078 614.868,-212.426 646.634,-200.597 667.423,-192.216"/>
<polygon fill="red" stroke="red" stroke-width="0.775511" points="668.762,-195.449 676.685,-188.415 666.105,-188.973 668.762,-195.449"/>
</g>
<!-- 3 -->
<g id="node20" class="node"><title>3</title>
<ellipse fill="lightblue" stroke="black" cx="783.196" cy="-14.8492" rx="14.7" ry="14.7"/>
<text text-anchor="middle" x="783.196" y="-12.6492" font-family="Times New Roman,serif" font-size="9.00">3</text>
</g>
<!-- &#45;7&#45;&gt;3 -->
<g id="edge17" class="edge"><title>&#45;7&#45;&gt;3</title>
<path fill="none" stroke="green" stroke-width="0.253707" d="M264.025,-267.269C266.558,-245.747 275.711,-185.561 302.196,-144.125 330.591,-99.7024 343.152,-87.4084 391.196,-65.6985 457.487,-35.7439 682.956,-21.2092 758.385,-17.103"/>
<polygon fill="green" stroke="green" stroke-width="0.253707" points="758.588,-20.5972 768.388,-16.5722 758.217,-13.607 758.588,-20.5972"/>
</g>
<!-- &#45;8 -->
<g id="node8" class="node"><title>&#45;8</title>
<polygon fill="lightgray" stroke="black" points="926.196,-285.291 902.196,-285.291 902.196,-267.291 926.196,-267.291 926.196,-285.291"/>
<text text-anchor="middle" x="914.196" y="-274.091" font-family="Times New Roman,serif" font-size="9.00">&#45;8</text>
</g>
<!-- &#45;8&#45;&gt;2 -->
<g id="edge18" class="edge"><title>&#45;8&#45;&gt;2</title>
<path fill="none" stroke="green" stroke-width="0.50917" stroke-dasharray="1,5" d="M907.638,-267.033C903.856,-262.822 898.755,-257.989 893.196,-255.078 821.308,-217.434 781.46,-264.473 714.196,-219.078 708.802,-215.438 704.327,-210.137 700.761,-204.7"/>
<polygon fill="green" stroke="green" stroke-width="0.50917" points="703.614,-202.636 695.616,-195.687 697.534,-206.107 703.614,-202.636"/>
</g>
<!-- &#45;8&#45;&gt;3 -->
<g id="edge19" class="edge"><title>&#45;8&#45;&gt;3</title>
<path fill="none" stroke="red" stroke-width="0.382461" d="M911.218,-266.983C900.726,-238.136 863.747,-140.018 820.196,-65.6985 813.92,-54.9874 805.8,-43.8229 798.768,-34.7816"/>
<polygon fill="red" stroke="red" stroke-width="0.382461" points="801.419,-32.4927 792.453,-26.8478 795.942,-36.8518 801.419,-32.4927"/>
</g>
<!-- 646 -->
<g id="node21" class="node"><title>646</title>
<ellipse fill="white" stroke="black" cx="736.196" cy="-86.9117" rx="21.4286" ry="21.4286"/>
<text text-anchor="middle" x="736.196" y="-84.7117" font-family="Times New Roman,serif" font-size="9.00">646</text>
</g>
<!-- &#45;8&#45;&gt;646 -->
<g id="edge57" class="edge"><title>&#45;8&#45;&gt;646</title>
<path fill="none" stroke="red" stroke-width="0.269702" d="M905.629,-267.015C901.827,-263.351 897.295,-258.992 893.196,-255.078 876.371,-239.011 871.468,-235.705 855.196,-219.078 819.335,-182.435 779.703,-137.877 756.427,-111.262"/>
<polygon fill="red" stroke="red" stroke-width="0.269702" points="758.961,-108.843 749.75,-103.607 753.685,-113.444 758.961,-108.843"/>
</g>
<!-- &#45;9 -->
<g id="node9" class="node"><title>&#45;9</title>
<polygon fill="lightgray" stroke="black" points="317.196,-285.291 293.196,-285.291 293.196,-267.291 317.196,-267.291 317.196,-285.291"/>
<text text-anchor="middle" x="305.196" y="-274.091" font-family="Times New Roman,serif" font-size="9.00">&#45;9</text>
</g>
<!-- &#45;9&#45;&gt;A XOR B -->
<g id="edge20" class="edge"><title>&#45;9&#45;&gt;A XOR B</title>
<path fill="none" stroke="red" stroke-width="0.131431" d="M311.941,-267.066C320.762,-256.308 336.792,-236.757 351.21,-219.173"/>
<polygon fill="red" stroke="red" stroke-width="0.131431" points="354.055,-221.223 357.689,-211.271 348.642,-216.784 354.055,-221.223"/>
</g>
<!-- &#45;9&#45;&gt;2 -->
<g id="edge21" class="edge"><title>&#45;9&#45;&gt;2</title>
<path fill="none" stroke="green" stroke-width="0.344613" d="M311.686,-266.897C315.448,-262.647 320.551,-257.819 326.196,-255.078 431.142,-204.131 472.812,-246.52 586.196,-219.078 614.804,-212.154 646.582,-200.381 667.392,-192.086"/>
<polygon fill="green" stroke="green" stroke-width="0.344613" points="668.71,-195.328 676.665,-188.33 666.082,-188.84 668.71,-195.328"/>
</g>
<!-- &#45;9&#45;&gt;3 -->
<g id="edge22" class="edge"><title>&#45;9&#45;&gt;3</title>
<path fill="none" stroke="red" stroke-width="0.363929" d="M304.49,-267.261C302.97,-244.657 301.888,-179.821 335.196,-144.125 394.815,-80.2323 672.841,-32.8266 758.204,-19.5811"/>
<polygon fill="red" stroke="red" stroke-width="0.363929" points="758.929,-23.011 768.284,-18.0378 757.87,-16.0917 758.929,-23.011"/>
</g>
<!-- &#45;10 -->
<g id="node10" class="node"><title>&#45;10</title>
<polygon fill="lightgray" stroke="black" points="48.6963,-363.718 19.6963,-363.718 19.6963,-345.718 48.6963,-345.718 48.6963,-363.718"/>
<text text-anchor="middle" x="34.1963" y="-352.518" font-family="Times New Roman,serif" font-size="9.00">&#45;10</text>
</g>
<!-- &#45;10&#45;&gt;2 -->
<g id="edge23" class="edge"><title>&#45;10&#45;&gt;2</title>
<path fill="none" stroke="red" stroke-width="0.246156" stroke-dasharray="1,5" d="M43.8387,-345.543C49.6362,-341.134 57.3862,-336.081 65.1963,-333.505 129.148,-312.41 619.968,-342.36 670.196,-297.505 695.417,-274.982 696.244,-232.95 693.771,-206.445"/>
<polygon fill="red" stroke="red" stroke-width="0.246156" points="697.242,-205.997 692.616,-196.466 690.289,-206.802 697.242,-205.997"/>
</g>
<!-- &#45;10&#45;&gt;3 -->
<g id="edge24" class="edge"><title>&#45;10&#45;&gt;3</title>
<path fill="none" stroke="green" stroke-width="0.284288" stroke-dasharray="1,5" d="M28.1173,-345.495C20.7688,-334.993 8.81343,-315.963 4.19626,-297.505 -0.379525,-279.212 -1.90837,-272.919 4.19626,-255.078 47.623,-128.164 110.581,-103.791 239.196,-65.6985 338.595,-36.2592 664.938,-20.7475 758.137,-16.8446"/>
<polygon fill="green" stroke="green" stroke-width="0.284288" points="758.469,-20.3341 768.317,-16.4261 758.181,-13.34 758.469,-20.3341"/>
</g>
<!-- 585 -->
<g id="node22" class="node"><title>585</title>
<ellipse fill="white" stroke="black" cx="34.1963" cy="-276.291" rx="21.4286" ry="21.4286"/>
<text text-anchor="middle" x="34.1963" y="-274.091" font-family="Times New Roman,serif" font-size="9.00">585</text>
</g>
<!-- &#45;10&#45;&gt;585 -->
<g id="edge42" class="edge"><title>&#45;10&#45;&gt;585</title>
<path fill="none" stroke="green" stroke-width="0.918212" d="M34.1963,-345.539C34.1963,-336.517 34.1963,-321.462 34.1963,-307.784"/>
<polygon fill="green" stroke="green" stroke-width="0.918212" points="37.6964,-307.716 34.1963,-297.716 30.6964,-307.716 37.6964,-307.716"/>
</g>
<!-- &#45;11 -->
<g id="node11" class="node"><title>&#45;11</title>
<polygon fill="lightgray" stroke="black" points="883.696,-285.291 854.696,-285.291 854.696,-267.291 883.696,-267.291 883.696,-285.291"/>
<text text-anchor="middle" x="869.196" y="-274.091" font-family="Times New Roman,serif" font-size="9.00">&#45;11</text>
</g>
<!-- &#45;11&#45;&gt;A XOR B -->
<g id="edge25" class="edge"><title>&#45;11&#45;&gt;A XOR B</title>
<path fill="none" stroke="red" stroke-width="0.332195" stroke-dasharray="1,5" d="M854.662,-272.141C835.235,-267.978 799.708,-260.537 769.196,-255.078 666.914,-236.78 640.204,-238.849 538.196,-219.078 500.641,-211.799 458.425,-201.893 427.235,-194.24"/>
<polygon fill="red" stroke="red" stroke-width="0.332195" points="428.063,-190.84 417.516,-191.841 426.386,-197.636 428.063,-190.84"/>
</g>
<!-- &#45;11&#45;&gt;1 -->
<g id="edge26" class="edge"><title>&#45;11&#45;&gt;1</title>
<path fill="none" stroke="green" stroke-width="0.259338" stroke-dasharray="1,5" d="M854.323,-271.539C820.631,-262.958 735.987,-240.953 666.196,-219.078 638.238,-210.315 606.516,-198.984 585.536,-191.293"/>
<polygon fill="green" stroke="green" stroke-width="0.259338" points="586.486,-187.913 575.893,-187.736 584.064,-194.48 586.486,-187.913"/>
</g>
<!-- &#45;11&#45;&gt;2 -->
<g id="edge27" class="edge"><title>&#45;11&#45;&gt;2</title>
<path fill="none" stroke="red" stroke-width="0.344968" d="M859.236,-267.116C853.862,-263.032 846.959,-258.291 840.196,-255.078 787.59,-230.086 761.134,-253.559 714.196,-219.078 708.952,-215.226 704.526,-209.855 700.959,-204.418"/>
<polygon fill="red" stroke="red" stroke-width="0.344968" points="703.814,-202.363 695.775,-195.461 697.755,-205.869 703.814,-202.363"/>
</g>
<!-- &#45;11&#45;&gt;3 -->
<g id="edge28" class="edge"><title>&#45;11&#45;&gt;3</title>
<path fill="none" stroke="red" stroke-width="0.618469" d="M866.528,-267.242C854.995,-232.45 809.187,-94.2564 790.846,-38.9276"/>
<polygon fill="red" stroke="red" stroke-width="0.618469" points="794.128,-37.7032 787.659,-29.3124 787.483,-39.9057 794.128,-37.7032"/>
</g>
<!-- 817 -->
<g id="node25" class="node"><title>817</title>
<ellipse fill="white" stroke="black" cx="744.196" cy="-181.602" rx="21.4286" ry="21.4286"/>
<text text-anchor="middle" x="744.196" y="-179.402" font-family="Times New Roman,serif" font-size="9.00">817</text>
</g>
<!-- &#45;11&#45;&gt;817 -->
<g id="edge56" class="edge"><title>&#45;11&#45;&gt;817</title>
<path fill="none" stroke="red" stroke-width="0.504613" d="M858.037,-267.22C852.702,-263.436 846.186,-258.925 840.196,-255.078 813.709,-238.066 803.879,-238.617 779.196,-219.078 774.259,-215.17 769.34,-210.587 764.817,-206.014"/>
<polygon fill="red" stroke="red" stroke-width="0.504613" points="767.065,-203.299 757.645,-198.451 761.985,-208.115 767.065,-203.299"/>
</g>
<!-- &#45;12 -->
<g id="node12" class="node"><title>&#45;12</title>
<polygon fill="lightgray" stroke="black" points="973.696,-285.291 944.696,-285.291 944.696,-267.291 973.696,-267.291 973.696,-285.291"/>
<text text-anchor="middle" x="959.196" y="-274.091" font-family="Times New Roman,serif" font-size="9.00">&#45;12</text>
</g>
<!-- &#45;12&#45;&gt;A XOR B -->
<g id="edge29" class="edge"><title>&#45;12&#45;&gt;A XOR B</title>
<path fill="none" stroke="green" stroke-width="1.51538" d="M952.023,-267.198C947.632,-262.816 941.632,-257.763 935.196,-255.078 771.684,-186.87 713.12,-247.192 538.196,-219.078 500.302,-212.988 457.947,-202.953 426.788,-194.949"/>
<polygon fill="green" stroke="green" stroke-width="1.51538" points="427.643,-191.555 417.084,-192.429 425.884,-198.33 427.643,-191.555"/>
</g>
<!-- &#45;12&#45;&gt;2 -->
<g id="edge30" class="edge"><title>&#45;12&#45;&gt;2</title>
<path fill="none" stroke="red" stroke-width="0.170291" stroke-dasharray="1,5" d="M951.53,-266.961C947.157,-262.729 941.334,-257.899 935.196,-255.078 844.769,-213.528 797.701,-273.213 714.196,-219.078 708.736,-215.538 704.239,-210.271 700.673,-204.833"/>
<polygon fill="red" stroke="red" stroke-width="0.170291" points="703.524,-202.765 695.546,-195.794 697.435,-206.219 703.524,-202.765"/>
</g>
<!-- &#45;12&#45;&gt;3 -->
<g id="edge31" class="edge"><title>&#45;12&#45;&gt;3</title>
<path fill="none" stroke="green" stroke-width="0.610282" d="M956.081,-266.944C944.673,-237.141 902.772,-134.115 844.196,-65.6985 832.458,-51.988 816.612,-39.166 804.012,-29.9599"/>
<polygon fill="green" stroke="green" stroke-width="0.610282" points="805.698,-26.8648 795.516,-23.9345 801.648,-32.5746 805.698,-26.8648"/>
</g>
<!-- 831 -->
<g id="node28" class="node"><title>831</title>
<ellipse fill="white" stroke="black" cx="956.196" cy="-86.9117" rx="21.4286" ry="21.4286"/>
<text text-anchor="middle" x="956.196" y="-84.7117" font-family="Times New Roman,serif" font-size="9.00">831</text>
</g>
<!-- &#45;12&#45;&gt;831 -->
<g id="edge54" class="edge"><title>&#45;12&#45;&gt;831</title>
<path fill="none" stroke="green" stroke-width="0.286515" d="M959.067,-267.24C958.661,-241.872 957.393,-162.675 956.686,-118.488"/>
<polygon fill="green" stroke="green" stroke-width="0.286515" points="960.183,-118.264 956.523,-108.321 953.184,-118.376 960.183,-118.264"/>
</g>
<!-- &#45;13 -->
<g id="node13" class="node"><title>&#45;13</title>
<polygon fill="lightgray" stroke="black" points="661.696,-285.291 632.696,-285.291 632.696,-267.291 661.696,-267.291 661.696,-285.291"/>
<text text-anchor="middle" x="647.196" y="-274.091" font-family="Times New Roman,serif" font-size="9.00">&#45;13</text>
</g>
<!-- &#45;13&#45;&gt;A XOR B -->
<g id="edge32" class="edge"><title>&#45;13&#45;&gt;A XOR B</title>
<path fill="none" stroke="green" stroke-width="0.269181" d="M639.374,-267.273C634.955,-263.133 629.139,-258.29 623.196,-255.078 560.027,-220.939 478.677,-200.823 428.237,-190.757"/>
<polygon fill="green" stroke="green" stroke-width="0.269181" points="428.752,-187.291 418.268,-188.818 427.416,-194.163 428.752,-187.291"/>
</g>
<!-- &#45;13&#45;&gt;1 -->
<g id="edge33" class="edge"><title>&#45;13&#45;&gt;1</title>
<path fill="none" stroke="green" stroke-width="0.435492" d="M639.653,-267.066C626.083,-252.268 597.258,-220.835 578.854,-200.767"/>
<polygon fill="green" stroke="green" stroke-width="0.435492" points="581.246,-198.197 571.908,-193.192 576.087,-202.928 581.246,-198.197"/>
</g>
<!-- &#45;13&#45;&gt;2 -->
<g id="edge34" class="edge"><title>&#45;13&#45;&gt;2</title>
<path fill="none" stroke="red" stroke-width="0.22591" d="M651.012,-267.066C657.448,-253.194 670.666,-224.701 679.964,-204.658"/>
<polygon fill="red" stroke="red" stroke-width="0.22591" points="683.256,-205.878 684.29,-195.333 676.907,-202.932 683.256,-205.878"/>
</g>
<!-- &#45;13&#45;&gt;646 -->
<g id="edge44" class="edge"><title>&#45;13&#45;&gt;646</title>
<path fill="none" stroke="green" stroke-width="0.221119" d="M646.421,-267.26C644.729,-245.717 642.57,-185.482 666.196,-144.125 676.12,-126.753 693.691,-112.67 708.745,-102.944"/>
<polygon fill="green" stroke="green" stroke-width="0.221119" points="711,-105.667 717.702,-97.4615 707.346,-99.697 711,-105.667"/>
</g>
<!-- &#45;14 -->
<g id="node14" class="node"><title>&#45;14</title>
<polygon fill="lightgray" stroke="black" points="1020.7,-285.291 991.696,-285.291 991.696,-267.291 1020.7,-267.291 1020.7,-285.291"/>
<text text-anchor="middle" x="1006.2" y="-274.091" font-family="Times New Roman,serif" font-size="9.00">&#45;14</text>
</g>
<!-- &#45;14&#45;&gt;2 -->
<g id="edge35" class="edge"><title>&#45;14&#45;&gt;2</title>
<path fill="none" stroke="green" stroke-width="0.504734" d="M998.943,-266.889C994.78,-262.636 989.196,-257.808 983.196,-255.078 873.406,-205.122 816.333,-283.247 714.196,-219.078 708.686,-215.616 704.173,-210.375 700.607,-204.936"/>
<polygon fill="green" stroke="green" stroke-width="0.504734" points="703.457,-202.864 695.493,-195.877 697.361,-206.305 703.457,-202.864"/>
</g>
<!-- &#45;14&#45;&gt;3 -->
<g id="edge36" class="edge"><title>&#45;14&#45;&gt;3</title>
<path fill="none" stroke="green" stroke-width="0.73574" d="M1006.61,-267.278C1008.24,-232.689 1012.84,-96.5384 986.196,-65.6985 963.036,-38.8926 857.134,-23.98 808.164,-18.4109"/>
<polygon fill="green" stroke="green" stroke-width="0.73574" points="808.413,-14.9172 798.091,-17.3065 807.65,-21.8755 808.413,-14.9172"/>
</g>
<!-- 664 -->
<g id="node26" class="node"><title>664</title>
<ellipse fill="white" stroke="black" cx="1054.2" cy="-86.9117" rx="21.4286" ry="21.4286"/>
<text text-anchor="middle" x="1054.2" y="-84.7117" font-family="Times New Roman,serif" font-size="9.00">664</text>
</g>
<!-- &#45;14&#45;&gt;664 -->
<g id="edge45" class="edge"><title>&#45;14&#45;&gt;664</title>
<path fill="none" stroke="red" stroke-width="0.129713" d="M1008.26,-267.24C1014.8,-241.689 1035.34,-161.528 1046.61,-117.535"/>
<polygon fill="red" stroke="red" stroke-width="0.129713" points="1050.04,-118.255 1049.13,-107.699 1043.26,-116.517 1050.04,-118.255"/>
</g>
<!-- &#45;15 -->
<g id="node15" class="node"><title>&#45;15</title>
<polygon fill="lightgray" stroke="black" points="405.696,-285.291 376.696,-285.291 376.696,-267.291 405.696,-267.291 405.696,-285.291"/>
<text text-anchor="middle" x="391.196" y="-274.091" font-family="Times New Roman,serif" font-size="9.00">&#45;15</text>
</g>
<!-- &#45;15&#45;&gt;A XOR B -->
<g id="edge37" class="edge"><title>&#45;15&#45;&gt;A XOR B</title>
<path fill="none" stroke="green" stroke-width="0.55188" d="M390.309,-267.066C389.361,-258.282 387.781,-243.637 386.201,-228.987"/>
<polygon fill="green" stroke="green" stroke-width="0.55188" points="389.667,-228.482 385.114,-218.915 382.707,-229.233 389.667,-228.482"/>
</g>
<!-- &#45;15&#45;&gt;1 -->
<g id="edge52" class="edge"><title>&#45;15&#45;&gt;1</title>
<path fill="none" stroke="red" stroke-width="0.11263" d="M399.621,-267.164C404.026,-263.19 409.647,-258.533 415.196,-255.078 448.986,-234.043 461.577,-236.839 497.196,-219.078 511.961,-211.716 528.142,-202.639 540.666,-195.382"/>
<polygon fill="red" stroke="red" stroke-width="0.11263" points="542.582,-198.316 549.447,-190.245 539.048,-192.274 542.582,-198.316"/>
</g>
<!-- &#45;15&#45;&gt;2 -->
<g id="edge38" class="edge"><title>&#45;15&#45;&gt;2</title>
<path fill="none" stroke="red" stroke-width="0.523918" d="M398.916,-267.073C403.304,-262.874 409.125,-258.039 415.196,-255.078 485.004,-221.036 511.394,-239.975 586.196,-219.078 614.415,-211.195 646.086,-199.691 666.983,-191.719"/>
<polygon fill="red" stroke="red" stroke-width="0.523918" points="668.513,-194.88 676.583,-188.015 665.993,-188.35 668.513,-194.88"/>
</g>
<!-- &#45;15&#45;&gt;3 -->
<g id="edge39" class="edge"><title>&#45;15&#45;&gt;3</title>
<path fill="none" stroke="red" stroke-width="0.240776" d="M398.893,-267.143C419.798,-245.31 479.98,-184.419 538.196,-144.125 614.743,-91.1435 715.884,-44.8317 760.451,-25.4799"/>
<polygon fill="red" stroke="red" stroke-width="0.240776" points="761.995,-28.6258 769.797,-21.4581 759.228,-22.1958 761.995,-28.6258"/>
</g>
<!-- &#45;16 -->
<g id="node16" class="node"><title>&#45;16</title>
<polygon fill="lightgray" stroke="black" points="495.696,-285.291 466.696,-285.291 466.696,-267.291 495.696,-267.291 495.696,-285.291"/>
<text text-anchor="middle" x="481.196" y="-274.091" font-family="Times New Roman,serif" font-size="9.00">&#45;16</text>
</g>
<!-- &#45;16&#45;&gt;A XOR B -->
<g id="edge40" class="edge"><title>&#45;16&#45;&gt;A XOR B</title>
<path fill="none" stroke="red" stroke-width="0.323647" stroke-dasharray="1,5" d="M472.322,-267.066C459.691,-255.358 435.826,-233.238 415.686,-214.57"/>
<polygon fill="red" stroke="red" stroke-width="0.323647" points="417.895,-211.845 408.182,-207.614 413.136,-216.979 417.895,-211.845"/>
</g>
<!-- &#45;16&#45;&gt;2 -->
<g id="edge41" class="edge"><title>&#45;16&#45;&gt;2</title>
<path fill="none" stroke="red" stroke-width="0.232322" d="M495.893,-268.774C531.849,-252.827 624.449,-211.76 667.529,-192.654"/>
<polygon fill="red" stroke="red" stroke-width="0.232322" points="669.158,-195.761 676.88,-188.507 666.32,-189.362 669.158,-195.761"/>
</g>
<!-- 2&#45;&gt;646 -->
<g id="edge58" class="edge"><title>2&#45;&gt;646</title>
<path fill="none" stroke="red" stroke-width="0.190446" d="M696.4,-168.101C703.063,-154.676 713.86,-132.919 722.528,-115.453"/>
<polygon fill="red" stroke="red" stroke-width="0.190446" points="725.775,-116.784 727.085,-106.271 719.504,-113.673 725.775,-116.784"/>
</g>
<!-- 646&#45;&gt;3 -->
<g id="edge61" class="edge"><title>646&#45;&gt;3</title>
<path fill="none" stroke="red" stroke-width="0.144751" d="M747.574,-68.9515C754.214,-59.0535 762.632,-46.5049 769.617,-36.0917"/>
<polygon fill="red" stroke="red" stroke-width="0.144751" points="772.642,-37.865 775.306,-27.6107 766.829,-33.9654 772.642,-37.865"/>
</g>
<!-- 585&#45;&gt;A XOR B -->
<g id="edge49" class="edge"><title>585&#45;&gt;A XOR B</title>
<path fill="none" stroke="green" stroke-width="0.393788" d="M50.7012,-262.598C54.9277,-259.798 59.5861,-257.076 64.1963,-255.078 154.976,-215.748 270.018,-196.301 333.564,-187.947"/>
<polygon fill="green" stroke="green" stroke-width="0.393788" points="334.21,-191.393 343.685,-186.653 333.322,-184.449 334.21,-191.393"/>
</g>
<!-- 585&#45;&gt;3 -->
<g id="edge43" class="edge"><title>585&#45;&gt;3</title>
<path fill="none" stroke="green" stroke-width="0.209155" d="M48.5235,-260.554C88.082,-220.923 203.881,-111.95 324.196,-65.6985 404.75,-34.7322 674.54,-20.5907 758.225,-16.8792"/>
<polygon fill="green" stroke="green" stroke-width="0.209155" points="758.498,-20.3707 768.337,-16.4417 758.195,-13.3773 758.498,-20.3707"/>
</g>
<!-- 714&#45;&gt;A XOR B -->
<g id="edge51" class="edge"><title>714&#45;&gt;A XOR B</title>
<path fill="none" stroke="green" stroke-width="0.213479" d="M719.027,-269.156C705.3,-265.036 686.699,-259.563 670.196,-255.078 584.964,-231.916 484.862,-207.409 427.643,-193.655"/>
<polygon fill="green" stroke="green" stroke-width="0.213479" points="428.354,-190.226 417.813,-191.297 426.72,-197.033 428.354,-190.226"/>
</g>
<!-- 714&#45;&gt;817 -->
<g id="edge53" class="edge"><title>714&#45;&gt;817</title>
<path fill="none" stroke="red" stroke-width="0.212603" d="M740.306,-254.721C740.964,-242.516 741.811,-226.815 742.547,-213.181"/>
<polygon fill="red" stroke="red" stroke-width="0.212603" points="746.063,-212.97 743.107,-202.796 739.073,-212.593 746.063,-212.97"/>
</g>
<!-- 909&#45;&gt;702 -->
<g id="edge60" class="edge"><title>909&#45;&gt;702</title>
<path fill="none" stroke="red" stroke-width="0.36057" d="M94.9283,-333.237C94.8254,-325.378 94.7058,-316.234 94.5934,-307.644"/>
<polygon fill="red" stroke="red" stroke-width="0.36057" points="98.0921,-307.517 94.4615,-297.564 91.0927,-307.609 98.0921,-307.517"/>
</g>
<!-- 664&#45;&gt;3 -->
<g id="edge46" class="edge"><title>664&#45;&gt;3</title>
<path fill="none" stroke="green" stroke-width="0.552123" d="M1036.93,-74.4979C1031.44,-71.2687 1025.22,-68.0085 1019.2,-65.6985 945.297,-37.3797 851.893,-23.7056 808.054,-18.4871"/>
<polygon fill="green" stroke="green" stroke-width="0.552123" points="808.352,-14.9984 798.019,-17.3387 807.556,-21.953 808.352,-14.9984"/>
</g>
<!-- 702&#45;&gt;A XOR B -->
<g id="edge48" class="edge"><title>702&#45;&gt;A XOR B</title>
<path fill="none" stroke="green" stroke-width="0.289665" d="M110.774,-262.761C114.998,-259.956 119.638,-257.19 124.196,-255.078 193.994,-222.738 281.287,-201.872 334.068,-191.193"/>
<polygon fill="green" stroke="green" stroke-width="0.289665" points="335.021,-194.572 344.149,-189.192 333.659,-187.706 335.021,-194.572"/>
</g>
<!-- 831&#45;&gt;3 -->
<g id="edge55" class="edge"><title>831&#45;&gt;3</title>
<path fill="none" stroke="red" stroke-width="0.430746" d="M938.356,-74.795C932.949,-71.6495 926.923,-68.3608 921.196,-65.6985 882.28,-47.6057 834.817,-31.7368 806.911,-23.0009"/>
<polygon fill="red" stroke="red" stroke-width="0.430746" points="807.82,-19.6185 797.233,-20.0122 805.755,-26.3069 807.82,-19.6185"/>
</g>
</g>
</svg>
