<?xml version="1.0" encoding="UTF-8" standalone="no"?>
<!DOCTYPE svg PUBLIC "-//W3C//DTD SVG 1.1//EN"
 "http://www.w3.org/Graphics/SVG/1.1/DTD/svg11.dtd">
<!-- Generated by graphviz version 2.38.0 (20140413.2041)
 -->
<!-- Title: %3 Pages: 1 -->
<svg width="832pt" height="215pt"
 viewBox="0.00 0.00 831.90 215.38" xmlns="http://www.w3.org/2000/svg" xmlns:xlink="http://www.w3.org/1999/xlink">
<g id="graph0" class="graph" transform="scale(1 1) rotate(0) translate(4 211.38)">
<title>%3</title>
<polygon fill="white" stroke="none" points="-4,4 -4,-211.38 827.901,-211.38 827.901,4 -4,4"/>
<!-- A -->
<g id="node1" class="node"><title>A</title>
<polygon fill="lightgray" stroke="black" points="43.2752,-141.167 20.2752,-141.167 20.2752,-123.167 43.2752,-123.167 43.2752,-141.167"/>
<text text-anchor="middle" x="31.7752" y="-129.967" font-family="Times New Roman,serif" font-size="9.00">A</text>
</g>
<!-- A XOR B -->
<g id="node17" class="node"><title>A XOR B</title>
<ellipse fill="lightblue" stroke="black" cx="298.775" cy="-37.4767" rx="37.4533" ry="37.4533"/>
<text text-anchor="middle" x="298.775" y="-35.2767" font-family="Times New Roman,serif" font-size="9.00">A XOR B</text>
</g>
<!-- A&#45;&gt;A XOR B -->
<g id="edge1" class="edge"><title>A&#45;&gt;A XOR B</title>
<path fill="none" stroke="green" stroke-width="0.163934" d="M38.3652,-122.968C42.1567,-118.774 47.2562,-113.939 52.7752,-110.953 115.742,-76.8925 141.538,-96.6001 209.775,-74.9533 224.906,-70.1533 241.072,-63.8883 255.418,-57.9082"/>
<polygon fill="green" stroke="green" stroke-width="0.163934" points="257.184,-60.9613 265.024,-53.8352 254.451,-54.5167 257.184,-60.9613"/>
</g>
<!-- 2 -->
<g id="node19" class="node"><title>2</title>
<ellipse fill="lightblue" stroke="black" cx="185.775" cy="-37.4767" rx="14.7" ry="14.7"/>
<text text-anchor="middle" x="185.775" y="-35.2767" font-family="Times New Roman,serif" font-size="9.00">2</text>
</g>
<!-- A&#45;&gt;2 -->
<g id="edge2" class="edge"><title>A&#45;&gt;2</title>
<path fill="none" stroke="red" stroke-width="0.141227" d="M39.112,-123.154C42.9577,-119.209 47.878,-114.544 52.7752,-110.953 88.8507,-84.5047 135.708,-61.2039 163.09,-48.5459"/>
<polygon fill="red" stroke="red" stroke-width="0.141227" points="164.591,-51.7082 172.241,-44.3778 161.689,-45.3379 164.591,-51.7082"/>
</g>
<!-- 3 -->
<g id="node20" class="node"><title>3</title>
<ellipse fill="lightblue" stroke="black" cx="510.775" cy="-37.4767" rx="14.7" ry="14.7"/>
<text text-anchor="middle" x="510.775" y="-35.2767" font-family="Times New Roman,serif" font-size="9.00">3</text>
</g>
<!-- A&#45;&gt;3 -->
<g id="edge3" class="edge"><title>A&#45;&gt;3</title>
<path fill="none" stroke="green" stroke-width="0.111162" d="M37.8894,-123.149C41.6774,-118.792 46.9274,-113.738 52.7752,-110.953 170.83,-54.7268 215.888,-97.0093 344.775,-74.9533 395.468,-66.2784 454.083,-52.5072 486.333,-44.6006"/>
<polygon fill="green" stroke="green" stroke-width="0.111162" points="487.342,-47.9567 496.21,-42.1599 485.662,-41.1611 487.342,-47.9567"/>
</g>
<!-- B -->
<g id="node2" class="node"><title>B</title>
<polygon fill="lightgray" stroke="black" points="350.275,-141.167 327.275,-141.167 327.275,-123.167 350.275,-123.167 350.275,-141.167"/>
<text text-anchor="middle" x="338.775" y="-129.967" font-family="Times New Roman,serif" font-size="9.00">B</text>
</g>
<!-- B&#45;&gt;A XOR B -->
<g id="edge4" class="edge"><title>B&#45;&gt;A XOR B</title>
<path fill="none" stroke="green" stroke-width="0.521269" d="M335.226,-122.941C331.172,-113.548 324.226,-97.4524 317.478,-81.8152"/>
<polygon fill="green" stroke="green" stroke-width="0.521269" points="320.505,-79.9968 313.329,-72.202 314.078,-82.7704 320.505,-79.9968"/>
</g>
<!-- 1 -->
<g id="node18" class="node"><title>1</title>
<ellipse fill="lightblue" stroke="black" cx="576.775" cy="-37.4767" rx="14.7" ry="14.7"/>
<text text-anchor="middle" x="576.775" y="-35.2767" font-family="Times New Roman,serif" font-size="9.00">1</text>
</g>
<!-- B&#45;&gt;1 -->
<g id="edge5" class="edge"><title>B&#45;&gt;1</title>
<path fill="none" stroke="red" stroke-width="0.264027" d="M345.339,-122.918C349.122,-118.71 354.223,-113.876 359.775,-110.953 430.039,-73.9617 463.588,-110.135 534.775,-74.9533 544.186,-70.3026 553.176,-63.026 560.407,-56.1914"/>
<polygon fill="red" stroke="red" stroke-width="0.264027" points="562.906,-58.6415 567.499,-49.0938 557.955,-53.6936 562.906,-58.6415"/>
</g>
<!-- B&#45;&gt;2 -->
<g id="edge6" class="edge"><title>B&#45;&gt;2</title>
<path fill="none" stroke="red" stroke-width="0.583481" stroke-dasharray="1,5" d="M326.77,-123.893C300.866,-108.201 239.449,-70.9928 206.887,-51.2667"/>
<polygon fill="red" stroke="red" stroke-width="0.583481" points="208.517,-48.1616 198.15,-45.9736 204.89,-54.1486 208.517,-48.1616"/>
</g>
<!-- &#45;3 -->
<g id="node3" class="node"><title>&#45;3</title>
<polygon fill="lightgray" stroke="black" points="434.775,-141.167 410.775,-141.167 410.775,-123.167 434.775,-123.167 434.775,-141.167"/>
<text text-anchor="middle" x="422.775" y="-129.967" font-family="Times New Roman,serif" font-size="9.00">&#45;3</text>
</g>
<!-- &#45;3&#45;&gt;A XOR B -->
<g id="edge7" class="edge"><title>&#45;3&#45;&gt;A XOR B</title>
<path fill="none" stroke="red" stroke-width="0.210724" d="M414.866,-122.994C411.04,-119.189 406.303,-114.689 401.775,-110.953 381.646,-94.3487 357.901,-77.475 338.285,-64.1915"/>
<polygon fill="red" stroke="red" stroke-width="0.210724" points="340.126,-61.212 329.873,-58.5427 336.224,-67.0233 340.126,-61.212"/>
</g>
<!-- &#45;3&#45;&gt;3 -->
<g id="edge8" class="edge"><title>&#45;3&#45;&gt;3</title>
<path fill="none" stroke="green" stroke-width="0.700601" d="M430.585,-122.941C444.77,-107.999 475.058,-76.0972 494.082,-56.0591"/>
<polygon fill="green" stroke="green" stroke-width="0.700601" points="496.652,-58.436 500.999,-48.7739 491.575,-53.6163 496.652,-58.436"/>
</g>
<!-- &#45;4 -->
<g id="node4" class="node"><title>&#45;4</title>
<polygon fill="lightgray" stroke="black" points="754.775,-141.167 730.775,-141.167 730.775,-123.167 754.775,-123.167 754.775,-141.167"/>
<text text-anchor="middle" x="742.775" y="-129.967" font-family="Times New Roman,serif" font-size="9.00">&#45;4</text>
</g>
<!-- &#45;4&#45;&gt;1 -->
<g id="edge9" class="edge"><title>&#45;4&#45;&gt;1</title>
<path fill="none" stroke="red" stroke-width="0.281616" d="M735.492,-123.08C731.66,-119.117 726.735,-114.456 721.775,-110.953 681.882,-82.7785 629.443,-59.4971 599.8,-47.422"/>
<polygon fill="red" stroke="red" stroke-width="0.281616" points="600.908,-44.0955 590.323,-43.6285 598.306,-50.5942 600.908,-44.0955"/>
</g>
<!-- &#45;4&#45;&gt;3 -->
<g id="edge10" class="edge"><title>&#45;4&#45;&gt;3</title>
<path fill="none" stroke="green" stroke-width="0.138775" d="M736.204,-122.933C732.418,-118.73 727.317,-113.896 721.775,-110.953 653.947,-74.9401 621.503,-109.219 552.775,-74.9533 543.381,-70.2697 534.393,-62.9881 527.16,-56.1587"/>
<polygon fill="green" stroke="green" stroke-width="0.138775" points="529.612,-53.6609 520.063,-49.0699 524.665,-58.6134 529.612,-53.6609"/>
</g>
<!-- &#45;5 -->
<g id="node5" class="node"><title>&#45;5</title>
<polygon fill="lightgray" stroke="black" points="85.7752,-141.167 61.7752,-141.167 61.7752,-123.167 85.7752,-123.167 85.7752,-141.167"/>
<text text-anchor="middle" x="73.7752" y="-129.967" font-family="Times New Roman,serif" font-size="9.00">&#45;5</text>
</g>
<!-- &#45;5&#45;&gt;A XOR B -->
<g id="edge11" class="edge"><title>&#45;5&#45;&gt;A XOR B</title>
<path fill="none" stroke="green" stroke-width="0.281043" d="M80.4614,-123.137C84.281,-118.994 89.3767,-114.152 94.7752,-110.953 140.853,-83.6549 159.395,-93.1253 209.775,-74.9533 224.58,-69.6132 240.547,-63.2609 254.814,-57.3656"/>
<polygon fill="green" stroke="green" stroke-width="0.281043" points="256.501,-60.4542 264.384,-53.3753 253.808,-53.9933 256.501,-60.4542"/>
</g>
<!-- &#45;5&#45;&gt;2 -->
<g id="edge12" class="edge"><title>&#45;5&#45;&gt;2</title>
<path fill="none" stroke="red" stroke-width="0.160237" d="M81.7861,-123.113C85.6343,-119.334 90.36,-114.821 94.7752,-110.953 118.644,-90.0424 147.492,-67.499 166.216,-53.2036"/>
<polygon fill="red" stroke="red" stroke-width="0.160237" points="168.444,-55.9068 174.291,-47.0715 164.21,-50.3322 168.444,-55.9068"/>
</g>
<!-- &#45;5&#45;&gt;3 -->
<g id="edge13" class="edge"><title>&#45;5&#45;&gt;3</title>
<path fill="none" stroke="red" stroke-width="0.105536" stroke-dasharray="1,5" d="M80.2709,-122.784C84.0347,-118.537 89.1379,-113.709 94.7752,-110.953 195.628,-61.6545 234.325,-95.013 344.775,-74.9533 395.377,-65.7631 454.025,-52.1783 486.305,-44.4431"/>
<polygon fill="red" stroke="red" stroke-width="0.105536" points="487.291,-47.8058 496.192,-42.059 485.65,-41.0008 487.291,-47.8058"/>
</g>
<!-- &#45;6 -->
<g id="node6" class="node"><title>&#45;6</title>
<polygon fill="lightgray" stroke="black" points="652.775,-141.167 628.775,-141.167 628.775,-123.167 652.775,-123.167 652.775,-141.167"/>
<text text-anchor="middle" x="640.775" y="-129.967" font-family="Times New Roman,serif" font-size="9.00">&#45;6</text>
</g>
<!-- &#45;6&#45;&gt;A XOR B -->
<g id="edge14" class="edge"><title>&#45;6&#45;&gt;A XOR B</title>
<path fill="none" stroke="red" stroke-width="0.307516" stroke-dasharray="1,5" d="M634.189,-122.96C630.399,-118.765 625.299,-113.93 619.775,-110.953 595.724,-97.9953 428.417,-63.941 345.349,-47.5486"/>
<polygon fill="red" stroke="red" stroke-width="0.307516" points="345.899,-44.0898 335.411,-45.5925 344.547,-50.958 345.899,-44.0898"/>
</g>
<!-- &#45;6&#45;&gt;1 -->
<g id="edge15" class="edge"><title>&#45;6&#45;&gt;1</title>
<path fill="none" stroke="red" stroke-width="0.596988" d="M635.096,-122.941C625.227,-108.648 604.642,-78.8352 590.762,-58.7336"/>
<polygon fill="red" stroke="red" stroke-width="0.596988" points="593.482,-56.5121 584.919,-50.2718 587.721,-60.4894 593.482,-56.5121"/>
</g>
<!-- &#45;6&#45;&gt;3 -->
<g id="edge16" class="edge"><title>&#45;6&#45;&gt;3</title>
<path fill="none" stroke="red" stroke-width="0.411156" stroke-dasharray="1,5" d="M633.447,-123.141C629.604,-119.194 624.683,-114.529 619.775,-110.953 592.454,-91.0466 580.597,-94.1545 552.775,-74.9533 544.434,-69.1967 535.874,-62.0304 528.676,-55.5774"/>
<polygon fill="red" stroke="red" stroke-width="0.411156" points="530.673,-52.6582 520.947,-48.457 525.93,-57.8066 530.673,-52.6582"/>
</g>
<!-- &#45;7 -->
<g id="node7" class="node"><title>&#45;7</title>
<polygon fill="lightgray" stroke="black" points="175.775,-141.167 151.775,-141.167 151.775,-123.167 175.775,-123.167 175.775,-141.167"/>
<text text-anchor="middle" x="163.775" y="-129.967" font-family="Times New Roman,serif" font-size="9.00">&#45;7</text>
</g>
<!-- &#45;7&#45;&gt;A XOR B -->
<g id="edge17" class="edge"><title>&#45;7&#45;&gt;A XOR B</title>
<path fill="none" stroke="green" stroke-width="0.456158" d="M171.607,-122.898C175.416,-119.072 180.161,-114.581 184.775,-110.953 207.623,-92.9892 235.065,-75.4334 257.299,-62.1002"/>
<polygon fill="green" stroke="green" stroke-width="0.456158" points="259.352,-64.9519 266.166,-56.8396 255.78,-58.9315 259.352,-64.9519"/>
</g>
<!-- &#45;7&#45;&gt;2 -->
<g id="edge18" class="edge"><title>&#45;7&#45;&gt;2</title>
<path fill="none" stroke="green" stroke-width="0.119083" stroke-dasharray="1,5" d="M165.728,-122.941C168.937,-109.421 175.442,-82.0129 180.174,-62.0745"/>
<polygon fill="green" stroke="green" stroke-width="0.119083" points="183.621,-62.7101 182.525,-52.1721 176.81,-61.0935 183.621,-62.7101"/>
</g>
<!-- &#45;7&#45;&gt;3 -->
<g id="edge19" class="edge"><title>&#45;7&#45;&gt;3</title>
<path fill="none" stroke="red" stroke-width="0.605218" d="M170.357,-122.953C174.147,-118.756 179.246,-113.92 184.775,-110.953 186.476,-110.041 411.078,-60.462 486.441,-43.8415"/>
<polygon fill="red" stroke="red" stroke-width="0.605218" points="487.421,-47.2095 496.433,-41.6381 485.914,-40.3737 487.421,-47.2095"/>
</g>
<!-- &#45;8 -->
<g id="node8" class="node"><title>&#45;8</title>
<polygon fill="lightgray" stroke="black" points="562.775,-141.167 538.775,-141.167 538.775,-123.167 562.775,-123.167 562.775,-141.167"/>
<text text-anchor="middle" x="550.775" y="-129.967" font-family="Times New Roman,serif" font-size="9.00">&#45;8</text>
</g>
<!-- &#45;8&#45;&gt;1 -->
<g id="edge20" class="edge"><title>&#45;8&#45;&gt;1</title>
<path fill="none" stroke="green" stroke-width="0.226701" d="M553.083,-122.941C556.896,-109.346 564.649,-81.7079 570.249,-61.7429"/>
<polygon fill="green" stroke="green" stroke-width="0.226701" points="573.694,-62.4215 573.025,-51.8478 566.954,-60.5309 573.694,-62.4215"/>
</g>
<!-- &#45;8&#45;&gt;2 -->
<g id="edge21" class="edge"><title>&#45;8&#45;&gt;2</title>
<path fill="none" stroke="green" stroke-width="0.510007" d="M538.762,-126.334C526.973,-121.764 508.393,-115.016 491.775,-110.953 387.428,-85.4417 354.606,-109.155 252.775,-74.9533 236.207,-69.3885 218.916,-59.8676 206.05,-51.9482"/>
<polygon fill="green" stroke="green" stroke-width="0.510007" points="207.856,-48.9489 197.537,-46.5442 204.104,-54.8586 207.856,-48.9489"/>
</g>
<!-- &#45;8&#45;&gt;3 -->
<g id="edge22" class="edge"><title>&#45;8&#45;&gt;3</title>
<path fill="none" stroke="red" stroke-width="0.22141" stroke-dasharray="1,5" d="M547.226,-122.941C541.272,-109.144 529.077,-80.8872 520.436,-60.862"/>
<polygon fill="red" stroke="red" stroke-width="0.22141" points="523.583,-59.3213 516.407,-51.5266 517.156,-62.0949 523.583,-59.3213"/>
</g>
<!-- &#45;9 -->
<g id="node9" class="node"><title>&#45;9</title>
<polygon fill="lightgray" stroke="black" points="392.775,-141.167 368.775,-141.167 368.775,-123.167 392.775,-123.167 392.775,-141.167"/>
<text text-anchor="middle" x="380.775" y="-129.967" font-family="Times New Roman,serif" font-size="9.00">&#45;9</text>
</g>
<!-- &#45;9&#45;&gt;A XOR B -->
<g id="edge23" class="edge"><title>&#45;9&#45;&gt;A XOR B</title>
<path fill="none" stroke="green" stroke-width="0.212197" d="M373.498,-122.941C363.758,-111.931 345.87,-91.7114 330.039,-73.8157"/>
<polygon fill="green" stroke="green" stroke-width="0.212197" points="332.657,-71.4927 323.409,-66.322 327.414,-76.1309 332.657,-71.4927"/>
</g>
<!-- &#45;10 -->
<g id="node10" class="node"><title>&#45;10</title>
<polygon fill="lightgray" stroke="black" points="133.275,-141.167 104.275,-141.167 104.275,-123.167 133.275,-123.167 133.275,-141.167"/>
<text text-anchor="middle" x="118.775" y="-129.967" font-family="Times New Roman,serif" font-size="9.00">&#45;10</text>
</g>
<!-- &#45;10&#45;&gt;A XOR B -->
<g id="edge24" class="edge"><title>&#45;10&#45;&gt;A XOR B</title>
<path fill="none" stroke="green" stroke-width="0.128235" d="M127.231,-123.088C131.645,-119.128 137.263,-114.467 142.775,-110.953 162.393,-98.4499 215.91,-74.3219 254.801,-57.3492"/>
<polygon fill="green" stroke="green" stroke-width="0.128235" points="256.568,-60.3972 264.343,-53.1997 253.777,-53.9778 256.568,-60.3972"/>
</g>
<!-- &#45;10&#45;&gt;2 -->
<g id="edge25" class="edge"><title>&#45;10&#45;&gt;2</title>
<path fill="none" stroke="green" stroke-width="0.228192" d="M124.721,-122.941C135.155,-108.506 157.03,-78.2431 171.562,-58.1392"/>
<polygon fill="green" stroke="green" stroke-width="0.228192" points="174.449,-60.1206 177.47,-49.9658 168.776,-56.0198 174.449,-60.1206"/>
</g>
<!-- &#45;10&#45;&gt;3 -->
<g id="edge26" class="edge"><title>&#45;10&#45;&gt;3</title>
<path fill="none" stroke="green" stroke-width="0.54337" d="M126.459,-122.872C130.836,-118.651 136.658,-113.819 142.775,-110.953 225.353,-72.2626 255.335,-92.7427 344.775,-74.9533 395.217,-64.9207 453.922,-51.6406 486.256,-44.1857"/>
<polygon fill="green" stroke="green" stroke-width="0.54337" points="487.207,-47.5582 496.161,-41.894 485.629,-40.7384 487.207,-47.5582"/>
</g>
<!-- &#45;11 -->
<g id="node11" class="node"><title>&#45;11</title>
<polygon fill="lightgray" stroke="black" points="223.275,-141.167 194.275,-141.167 194.275,-123.167 223.275,-123.167 223.275,-141.167"/>
<text text-anchor="middle" x="208.775" y="-129.967" font-family="Times New Roman,serif" font-size="9.00">&#45;11</text>
</g>
<!-- &#45;11&#45;&gt;A XOR B -->
<g id="edge27" class="edge"><title>&#45;11&#45;&gt;A XOR B</title>
<path fill="none" stroke="green" stroke-width="0.265048" d="M216.762,-122.941C227.679,-111.698 247.919,-90.8529 265.56,-72.6847"/>
<polygon fill="green" stroke="green" stroke-width="0.265048" points="268.471,-74.7106 272.926,-65.098 263.449,-69.8342 268.471,-74.7106"/>
</g>
<!-- &#45;11&#45;&gt;1 -->
<g id="edge28" class="edge"><title>&#45;11&#45;&gt;1</title>
<path fill="none" stroke="green" stroke-width="0.338453" stroke-dasharray="1,5" d="M215.615,-123.139C219.811,-118.779 225.561,-113.726 231.775,-110.953 355.623,-55.7015 410.766,-129.842 534.775,-74.9533 544.374,-70.7049 553.393,-63.4889 560.594,-56.5909"/>
<polygon fill="green" stroke="green" stroke-width="0.338453" points="563.149,-58.9841 567.636,-49.3863 558.143,-54.0911 563.149,-58.9841"/>
</g>
<!-- &#45;11&#45;&gt;2 -->
<g id="edge47" class="edge"><title>&#45;11&#45;&gt;2</title>
<path fill="none" stroke="green" stroke-width="0.122824" d="M206.734,-122.941C203.379,-109.421 196.578,-82.0129 191.631,-62.0745"/>
<polygon fill="green" stroke="green" stroke-width="0.122824" points="194.979,-61.0348 189.174,-52.1721 188.185,-62.7207 194.979,-61.0348"/>
</g>
<!-- &#45;12 -->
<g id="node12" class="node"><title>&#45;12</title>
<polygon fill="lightgray" stroke="black" points="525.275,-207.38 496.275,-207.38 496.275,-189.38 525.275,-189.38 525.275,-207.38"/>
<text text-anchor="middle" x="510.775" y="-196.18" font-family="Times New Roman,serif" font-size="9.00">&#45;12</text>
</g>
<!-- &#45;12&#45;&gt;A XOR B -->
<g id="edge44" class="edge"><title>&#45;12&#45;&gt;A XOR B</title>
<path fill="none" stroke="red" stroke-width="0.59006" d="M496.137,-196.119C455.453,-192.308 342.393,-179.528 317.775,-153.38 300.812,-135.362 295.726,-108.31 295.037,-84.9798"/>
<polygon fill="red" stroke="red" stroke-width="0.59006" points="298.537,-84.8939 294.996,-74.9083 291.537,-84.9225 298.537,-84.8939"/>
</g>
<!-- &#45;12&#45;&gt;1 -->
<g id="edge29" class="edge"><title>&#45;12&#45;&gt;1</title>
<path fill="none" stroke="green" stroke-width="0.335666" d="M525.451,-197.63C580.563,-198.226 773.956,-197.129 811.775,-153.38 874.489,-80.8317 673.858,-49.789 601.651,-41.1401"/>
<polygon fill="green" stroke="green" stroke-width="0.335666" points="601.934,-37.6496 591.599,-39.9825 601.133,-44.6036 601.934,-37.6496"/>
</g>
<!-- &#45;12&#45;&gt;2 -->
<g id="edge30" class="edge"><title>&#45;12&#45;&gt;2</title>
<path fill="none" stroke="green" stroke-width="0.193124" d="M496.13,-197.239C417.161,-196.335 44.4331,-190.13 10.7752,-153.38 -39.4881,-98.499 102.604,-57.9022 161.504,-43.8486"/>
<polygon fill="green" stroke="green" stroke-width="0.193124" points="162.519,-47.2061 171.469,-41.5359 160.937,-40.3874 162.519,-47.2061"/>
</g>
<!-- &#45;12&#45;&gt;3 -->
<g id="edge31" class="edge"><title>&#45;12&#45;&gt;3</title>
<path fill="none" stroke="red" stroke-width="0.527201" d="M510.775,-189.281C510.775,-166.126 510.775,-98.9726 510.775,-62.5868"/>
<polygon fill="red" stroke="red" stroke-width="0.527201" points="514.275,-62.3652 510.775,-52.3652 507.275,-62.3653 514.275,-62.3652"/>
</g>
<!-- 944 -->
<g id="node21" class="node"><title>944</title>
<ellipse fill="white" stroke="black" cx="691.775" cy="-132.167" rx="21.4286" ry="21.4286"/>
<text text-anchor="middle" x="691.775" y="-129.967" font-family="Times New Roman,serif" font-size="9.00">944</text>
</g>
<!-- &#45;12&#45;&gt;944 -->
<g id="edge45" class="edge"><title>&#45;12&#45;&gt;944</title>
<path fill="none" stroke="red" stroke-width="0.487841" d="M525.468,-194.676C553.101,-189.253 614.303,-175.626 661.775,-153.38 663.339,-152.647 664.913,-151.838 666.477,-150.979"/>
<polygon fill="red" stroke="red" stroke-width="0.487841" points="668.469,-153.863 675.184,-145.669 664.824,-147.887 668.469,-153.863"/>
</g>
<!-- &#45;13 -->
<g id="node13" class="node"><title>&#45;13</title>
<polygon fill="lightgray" stroke="black" points="482.275,-141.167 453.275,-141.167 453.275,-123.167 482.275,-123.167 482.275,-141.167"/>
<text text-anchor="middle" x="467.775" y="-129.967" font-family="Times New Roman,serif" font-size="9.00">&#45;13</text>
</g>
<!-- &#45;13&#45;&gt;A XOR B -->
<g id="edge32" class="edge"><title>&#45;13&#45;&gt;A XOR B</title>
<path fill="none" stroke="red" stroke-width="0.542128" stroke-dasharray="1,5" d="M459.276,-123.155C454.852,-119.211 449.237,-114.545 443.775,-110.953 411.418,-89.6737 371.951,-70.3297 342.367,-56.9889"/>
<polygon fill="red" stroke="red" stroke-width="0.542128" points="343.689,-53.7464 333.13,-52.8735 340.84,-60.1404 343.689,-53.7464"/>
</g>
<!-- &#45;13&#45;&gt;1 -->
<g id="edge33" class="edge"><title>&#45;13&#45;&gt;1</title>
<path fill="none" stroke="green" stroke-width="0.915923" stroke-dasharray="1,5" d="M477.809,-122.839C490.95,-111.911 514.681,-92.1064 534.775,-74.9533 542.483,-68.3734 550.929,-61.0587 558.213,-54.7173"/>
<polygon fill="green" stroke="green" stroke-width="0.915923" points="560.882,-57.034 566.116,-47.8225 556.28,-51.7594 560.882,-57.034"/>
</g>
<!-- &#45;13&#45;&gt;2 -->
<g id="edge34" class="edge"><title>&#45;13&#45;&gt;2</title>
<path fill="none" stroke="green" stroke-width="0.226321" stroke-dasharray="1,5" d="M460.08,-122.896C455.699,-118.683 449.878,-113.85 443.775,-110.953 365.735,-73.9149 334.144,-103.959 252.775,-74.9533 236.513,-69.1562 219.439,-59.8046 206.598,-52.0218"/>
<polygon fill="green" stroke="green" stroke-width="0.226321" points="208.405,-49.0241 198.067,-46.7051 204.703,-54.9648 208.405,-49.0241"/>
</g>
<!-- &#45;13&#45;&gt;3 -->
<g id="edge35" class="edge"><title>&#45;13&#45;&gt;3</title>
<path fill="none" stroke="green" stroke-width="0.249743" stroke-dasharray="1,5" d="M471.591,-122.941C478.027,-109.069 491.245,-80.5762 500.543,-60.5326"/>
<polygon fill="green" stroke="green" stroke-width="0.249743" points="503.835,-61.7526 504.869,-51.2083 497.486,-58.8068 503.835,-61.7526"/>
</g>
<!-- &#45;14 -->
<g id="node14" class="node"><title>&#45;14</title>
<polygon fill="lightgray" stroke="black" points="270.275,-141.167 241.275,-141.167 241.275,-123.167 270.275,-123.167 270.275,-141.167"/>
<text text-anchor="middle" x="255.775" y="-129.967" font-family="Times New Roman,serif" font-size="9.00">&#45;14</text>
</g>
<!-- &#45;14&#45;&gt;A XOR B -->
<g id="edge36" class="edge"><title>&#45;14&#45;&gt;A XOR B</title>
<path fill="none" stroke="red" stroke-width="0.237159" d="M259.591,-122.941C264.024,-113.385 271.675,-96.8929 279.047,-81.0031"/>
<polygon fill="red" stroke="red" stroke-width="0.237159" points="282.295,-82.3184 283.328,-71.7741 275.945,-79.3726 282.295,-82.3184"/>
</g>
<!-- &#45;14&#45;&gt;1 -->
<g id="edge37" class="edge"><title>&#45;14&#45;&gt;1</title>
<path fill="none" stroke="green" stroke-width="0.163531" d="M270.377,-125.714C282.828,-121.233 301.279,-114.986 317.775,-110.953 412.741,-87.736 446.315,-116.574 534.775,-74.9533 544.273,-70.4845 553.277,-63.2353 560.494,-56.3721"/>
<polygon fill="green" stroke="green" stroke-width="0.163531" points="563.018,-58.7969 567.563,-49.2261 558.042,-53.8741 563.018,-58.7969"/>
</g>
<!-- &#45;14&#45;&gt;2 -->
<g id="edge38" class="edge"><title>&#45;14&#45;&gt;2</title>
<path fill="none" stroke="green" stroke-width="0.368868" d="M249.563,-122.941C238.662,-108.506 215.807,-78.2431 200.625,-58.1392"/>
<polygon fill="green" stroke="green" stroke-width="0.368868" points="203.272,-55.8365 194.452,-49.9658 197.686,-60.0551 203.272,-55.8365"/>
</g>
<!-- &#45;15 -->
<g id="node15" class="node"><title>&#45;15</title>
<polygon fill="lightgray" stroke="black" points="610.275,-141.167 581.275,-141.167 581.275,-123.167 610.275,-123.167 610.275,-141.167"/>
<text text-anchor="middle" x="595.775" y="-129.967" font-family="Times New Roman,serif" font-size="9.00">&#45;15</text>
</g>
<!-- &#45;15&#45;&gt;A XOR B -->
<g id="edge39" class="edge"><title>&#45;15&#45;&gt;A XOR B</title>
<path fill="none" stroke="green" stroke-width="0.533521" d="M587.993,-123.073C583.586,-118.911 577.768,-114.071 571.775,-110.953 498.059,-72.6015 402.318,-53.2665 346.009,-44.5765"/>
<polygon fill="green" stroke="green" stroke-width="0.533521" points="346.375,-41.0924 335.968,-43.0756 345.34,-48.0155 346.375,-41.0924"/>
</g>
<!-- &#45;15&#45;&gt;1 -->
<g id="edge40" class="edge"><title>&#45;15&#45;&gt;1</title>
<path fill="none" stroke="red" stroke-width="0.119066" d="M594.089,-122.941C591.318,-109.421 585.7,-82.0129 581.612,-62.0745"/>
<polygon fill="red" stroke="red" stroke-width="0.119066" points="585.019,-61.2655 579.583,-52.1721 578.162,-62.6712 585.019,-61.2655"/>
</g>
<!-- &#45;15&#45;&gt;3 -->
<g id="edge41" class="edge"><title>&#45;15&#45;&gt;3</title>
<path fill="none" stroke="green" stroke-width="0.334337" d="M588.232,-122.941C574.662,-108.143 545.837,-76.7105 527.433,-56.6417"/>
<polygon fill="green" stroke="green" stroke-width="0.334337" points="529.825,-54.0717 520.487,-49.067 524.666,-58.8028 529.825,-54.0717"/>
</g>
<!-- &#45;16 -->
<g id="node16" class="node"><title>&#45;16</title>
<polygon fill="lightgray" stroke="black" points="802.275,-141.167 773.275,-141.167 773.275,-123.167 802.275,-123.167 802.275,-141.167"/>
<text text-anchor="middle" x="787.775" y="-129.967" font-family="Times New Roman,serif" font-size="9.00">&#45;16</text>
</g>
<!-- &#45;16&#45;&gt;1 -->
<g id="edge42" class="edge"><title>&#45;16&#45;&gt;1</title>
<path fill="none" stroke="red" stroke-width="0.374327" d="M779.414,-122.935C775.024,-118.935 769.399,-114.285 763.775,-110.953 709.246,-78.6474 637.716,-55.6397 600.932,-45.0411"/>
<polygon fill="red" stroke="red" stroke-width="0.374327" points="601.679,-41.6154 591.105,-42.2683 599.778,-48.3523 601.679,-41.6154"/>
</g>
<!-- &#45;16&#45;&gt;3 -->
<g id="edge43" class="edge"><title>&#45;16&#45;&gt;3</title>
<path fill="none" stroke="red" stroke-width="0.280488" d="M780.1,-122.854C775.725,-118.628 769.903,-113.797 763.775,-110.953 677.481,-70.9087 638.763,-115.651 552.775,-74.9533 543.288,-70.4628 534.285,-63.2103 527.067,-56.3505"/>
<polygon fill="red" stroke="red" stroke-width="0.280488" points="529.519,-53.8525 519.995,-49.2103 524.545,-58.7783 529.519,-53.8525"/>
</g>
<!-- 944&#45;&gt;3 -->
<g id="edge46" class="edge"><title>944&#45;&gt;3</title>
<path fill="none" stroke="red" stroke-width="0.636185" d="M675.13,-118.778C670.907,-115.969 666.286,-113.166 661.775,-110.953 615.969,-88.4891 597.124,-100.173 552.775,-74.9533 543.965,-69.9435 535.321,-62.9117 528.187,-56.3575"/>
<polygon fill="red" stroke="red" stroke-width="0.636185" points="530.215,-53.4514 520.586,-49.0324 525.358,-58.4918 530.215,-53.4514"/>
</g>
</g>
</svg>
